<svg width="120" height="120" viewBox="0 0 120 120" fill="none" xmlns="http://www.w3.org/2000/svg">
<g clip-path="url(#clip0_11559_12887)">
<path d="M4.56153 76.3791C4.56222 76.0149 4.2675 75.719 3.90327 75.7184C3.53905 75.7177 3.24324 76.0125 3.24255 76.3766C3.24188 76.7409 3.53659 77.0367 3.90082 77.0374C4.26504 77.0381 4.56085 76.7434 4.56153 76.3791Z" fill="white"/>
<path d="M4.22175 72.7536C4.22986 72.3714 3.92658 72.055 3.54438 72.0469C3.16218 72.0387 2.84579 72.342 2.83768 72.7243C2.82959 73.1064 3.13285 73.4229 3.51505 73.431C3.89725 73.439 4.21366 73.1358 4.22175 72.7536Z" fill="white"/>
<path d="M4.0455 67.3872C4.06016 67.0504 3.79899 66.7655 3.46218 66.7508C3.12537 66.7361 2.84044 66.9973 2.82578 67.3341C2.81113 67.6709 3.0723 67.9559 3.4091 67.9705C3.74592 67.9851 4.03084 67.724 4.0455 67.3872Z" fill="white"/>
<path d="M2.10319 58.5613C2.12775 58.21 1.86285 57.9053 1.51153 57.8808C1.1602 57.8561 0.855484 58.1211 0.830924 58.4724C0.806366 58.8238 1.07126 59.1285 1.42258 59.153C1.77391 59.1776 2.07864 58.9127 2.10319 58.5613Z" fill="white"/>
<path d="M2.08244 55.2704C2.10661 54.907 1.83159 54.5928 1.46817 54.5686C1.10474 54.5445 0.79054 54.8195 0.766371 55.1829C0.742202 55.5463 1.01722 55.8606 1.38064 55.8847C1.74406 55.9089 2.05827 55.6339 2.08244 55.2704Z" fill="white"/>
<path d="M3.95176 46.2782C3.96679 45.8751 3.65221 45.5362 3.24914 45.5211C2.84606 45.5061 2.50712 45.8207 2.49209 46.2238C2.47706 46.6269 2.79164 46.9658 3.19472 46.9808C3.59779 46.9958 3.93673 46.6812 3.95176 46.2782Z" fill="white"/>
<path d="M7.78844 85.4952C7.77047 85.1285 7.45857 84.8457 7.09178 84.8636C6.72498 84.8816 6.44219 85.1935 6.46016 85.5602C6.47813 85.9271 6.79004 86.2099 7.15684 86.1919C7.52363 86.1739 7.80641 85.862 7.78844 85.4952Z" fill="white"/>
<path d="M7.06502 78.8855C7.05909 78.5184 6.75663 78.2255 6.38944 78.2314C6.02225 78.2374 5.72939 78.5398 5.73532 78.907C5.74123 79.2742 6.04371 79.567 6.41088 79.5611C6.77807 79.5552 7.07094 79.2527 7.06502 78.8855Z" fill="white"/>
<path d="M7.01181 73.903C7.01524 73.5298 6.71543 73.2244 6.34219 73.221C5.96896 73.2175 5.66361 73.5174 5.66019 73.8906C5.65677 74.2638 5.95656 74.5692 6.32981 74.5727C6.70305 74.5761 7.0084 74.2763 7.01181 73.903Z" fill="white"/>
<path d="M6.12325 72.3326C6.13045 71.9625 5.8362 71.6565 5.46603 71.6493C5.09586 71.6421 4.78992 71.9364 4.78272 72.3066C4.77552 72.6767 5.06976 72.9826 5.43994 72.9898C5.81012 72.997 6.11604 72.7028 6.12325 72.3326Z" fill="white"/>
<path d="M6.28223 66.456C6.29579 66.1041 6.0215 65.8078 5.66957 65.7942C5.31765 65.7807 5.02137 66.055 5.00781 66.4069C4.99425 66.7588 5.26853 67.0551 5.62046 67.0686C5.97239 67.0822 6.26867 66.8079 6.28223 66.456Z" fill="white"/>
<path d="M3.96649 57.4999C3.99287 57.1335 3.71731 56.8152 3.35103 56.7888C2.98475 56.7624 2.66643 57.038 2.64005 57.4043C2.61367 57.7706 2.88923 58.0888 3.25551 58.1152C3.62179 58.1416 3.94011 57.8661 3.96649 57.4999Z" fill="white"/>
<path d="M5.74586 51.9433C5.77088 51.5528 5.47459 51.2159 5.08407 51.1909C4.69356 51.1658 4.3567 51.4621 4.33167 51.8527C4.30666 52.2432 4.60295 52.5801 4.99346 52.6051C5.38398 52.6301 5.72084 52.3338 5.74586 51.9433Z" fill="white"/>
<path d="M6.47512 43.849C6.48727 43.4277 6.15563 43.0764 5.73439 43.0642C5.31316 43.0521 4.96182 43.3837 4.94966 43.8049C4.93751 44.2262 5.26915 44.5775 5.69039 44.5897C6.11164 44.6018 6.46297 44.2702 6.47512 43.849Z" fill="white"/>
<path d="M6.53414 41.0373C6.53996 40.5497 6.14939 40.1497 5.66177 40.1439C5.17417 40.138 4.77418 40.5287 4.76837 41.0162C4.76256 41.5039 5.15314 41.9039 5.64074 41.9097C6.12835 41.9155 6.52834 41.5249 6.53414 41.0373Z" fill="white"/>
<path d="M8.23708 36.1714C8.22852 35.6145 7.77019 35.17 7.21339 35.1787C6.65658 35.1872 6.21214 35.6456 6.2207 36.2024C6.22927 36.7592 6.6876 37.2036 7.24441 37.195C7.80121 37.1865 8.24565 36.7282 8.23708 36.1714Z" fill="white"/>
<path d="M9.4815 31.2276C9.45606 30.611 8.93562 30.1319 8.31907 30.1573C7.70252 30.1828 7.22333 30.7032 7.24877 31.3197C7.27421 31.9363 7.79464 32.4155 8.41119 32.3901C9.02774 32.3646 9.50693 31.8442 9.4815 31.2276Z" fill="white"/>
<path d="M14.2722 94.9522C14.2471 94.5888 13.9321 94.3145 13.5688 94.3397C13.2054 94.3648 12.9312 94.6798 12.9564 95.0432C12.9815 95.4065 13.2965 95.6807 13.6599 95.6556C14.0232 95.6304 14.2974 95.3154 14.2722 94.9522Z" fill="white"/>
<path d="M12.729 91.3376C12.7029 90.9623 12.3775 90.6792 12.0021 90.7051C11.6267 90.7312 11.3435 91.0566 11.3696 91.432C11.3957 91.8074 11.7211 92.0906 12.0965 92.0645C12.4718 92.0385 12.7549 91.713 12.729 91.3376Z" fill="white"/>
<path d="M10.9097 88.3998C10.8871 88.0394 10.5765 87.7655 10.216 87.788C9.85553 87.8106 9.58161 88.1212 9.60421 88.4818C9.62681 88.8422 9.93738 89.1161 10.2979 89.0935C10.6584 89.071 10.9323 88.7604 10.9097 88.3998Z" fill="white"/>
<path d="M9.09055 81.2539C9.0785 80.8838 8.76875 80.5935 8.3987 80.6057C8.02866 80.6177 7.73843 80.9275 7.75048 81.2975C7.76253 81.6675 8.07228 81.9577 8.44233 81.9457C8.81239 81.9336 9.1026 81.6239 9.09055 81.2539Z" fill="white"/>
<path d="M8.61444 75.5516C8.61158 75.1813 8.30913 74.8835 7.93889 74.8863C7.56866 74.8891 7.27084 75.1917 7.2737 75.5619C7.27657 75.9321 7.57901 76.2299 7.94925 76.227C8.31948 76.2242 8.6173 75.9217 8.61444 75.5516Z" fill="white"/>
<path d="M7.38862 72.2893C7.3934 71.9251 7.10206 71.626 6.73785 71.6212C6.37367 71.6164 6.07455 71.9078 6.06976 72.2719C6.06497 72.6362 6.35632 72.9353 6.72051 72.94C7.08471 72.9448 7.38383 72.6535 7.38862 72.2893Z" fill="white"/>
<path d="M6.39392 65.3072C6.40815 64.9523 6.13196 64.653 5.77706 64.6388C5.42215 64.6245 5.12291 64.9008 5.10868 65.2556C5.09445 65.6106 5.37063 65.9099 5.72555 65.924C6.08045 65.9383 6.3797 65.6621 6.39392 65.3072Z" fill="white"/>
<path d="M7.02005 59.3551C7.04492 58.9645 6.7485 58.6279 6.35797 58.603C5.96744 58.5781 5.6307 58.8746 5.60583 59.2651C5.58095 59.6555 5.87738 59.9923 6.2679 60.0172C6.65844 60.042 6.99518 59.7456 7.02005 59.3551Z" fill="white"/>
<path d="M6.14138 52.0297C6.16626 51.6393 5.86986 51.3025 5.47934 51.2775C5.08882 51.2526 4.75205 51.5491 4.72717 51.9396C4.70227 52.3301 4.99868 52.6669 5.38921 52.6918C5.77973 52.7166 6.11648 52.4202 6.14138 52.0297Z" fill="white"/>
<path d="M7.72355 47.2137C7.74229 46.7867 7.41132 46.4253 6.98429 46.4066C6.55727 46.3879 6.19589 46.7189 6.17715 47.1458C6.1584 47.5728 6.48937 47.9342 6.91639 47.953C7.34342 47.9718 7.70479 47.6408 7.72355 47.2137Z" fill="white"/>
<path d="M8.94068 38.6781C8.94159 38.1213 8.49089 37.6691 7.93403 37.6681C7.37715 37.6672 6.92498 38.118 6.92407 38.6748C6.92317 39.2317 7.37387 39.6839 7.93074 39.6847C8.48761 39.6856 8.93978 39.235 8.94068 38.6781Z" fill="white"/>
<path d="M10.6539 35.0864C10.6437 34.5086 10.167 34.0484 9.58912 34.0587C9.01127 34.0688 8.55111 34.5456 8.56132 35.1234C8.57155 35.7013 9.04827 36.1615 9.62613 36.1513C10.204 36.141 10.6641 35.6643 10.6539 35.0864Z" fill="white"/>
<path d="M10.3349 31.9804C10.3134 31.3848 9.81306 30.9194 9.21745 30.9409C8.62183 30.9625 8.15644 31.4628 8.17796 32.0583C8.19949 32.654 8.69978 33.1193 9.29539 33.0978C9.89101 33.0764 10.3564 32.5761 10.3349 31.9804Z" fill="white"/>
<path d="M15.4056 25.9376C15.3676 25.2492 14.7789 24.7221 14.0906 24.76C13.4023 24.7981 12.8752 25.3868 12.9132 26.0751C12.9511 26.7634 13.5399 27.2905 14.2282 27.2526C14.9164 27.2146 15.4435 26.6258 15.4056 25.9376Z" fill="white"/>
<path d="M16.572 21.495C16.5265 20.762 15.8954 20.2046 15.1623 20.2501C14.4292 20.2956 13.8719 20.9267 13.9174 21.6598C13.9628 22.3928 14.594 22.9502 15.3271 22.9047C16.06 22.8592 16.6175 22.2281 16.572 21.495Z" fill="white"/>
<path d="M17.6498 99.2245C17.6284 98.8609 17.3163 98.5835 16.9527 98.6049C16.5891 98.6262 16.3117 98.9383 16.3331 99.3019C16.3544 99.6655 16.6666 99.943 17.0302 99.9216C17.3938 99.9002 17.6712 99.5881 17.6498 99.2245Z" fill="white"/>
<path d="M17.75 94.5377C17.7209 94.1596 17.3908 93.8765 17.0126 93.9055C16.6344 93.9346 16.3514 94.2646 16.3805 94.6428C16.4095 95.0209 16.7396 95.304 17.1178 95.275C17.4959 95.246 17.779 94.9159 17.75 94.5377Z" fill="white"/>
<path d="M15.1897 90.3727C15.161 90.0036 14.8384 89.7276 14.4694 89.7563C14.1002 89.7851 13.8243 90.1076 13.853 90.4767C13.8818 90.8459 14.2043 91.1218 14.5734 91.0931C14.9425 91.0643 15.2185 90.7418 15.1897 90.3727Z" fill="white"/>
<path d="M14.9437 84.5476C14.9071 84.1579 14.5618 83.8716 14.1721 83.9082C13.7825 83.9447 13.4963 84.2901 13.5328 84.6798C13.5694 85.0693 13.9147 85.3556 14.3043 85.319C14.694 85.2826 14.9802 84.9371 14.9437 84.5476Z" fill="white"/>
<path d="M14.0739 81.0578C14.0408 80.683 13.7103 80.4059 13.3354 80.439C12.9606 80.4719 12.6835 80.8025 12.7165 81.1774C12.7495 81.5521 13.0801 81.8293 13.4549 81.7963C13.8297 81.7633 14.1068 81.4327 14.0739 81.0578Z" fill="white"/>
<path d="M10.7278 75.8125C10.7156 75.4454 10.4081 75.1578 10.0411 75.1701C9.67407 75.1823 9.38645 75.4898 9.39869 75.8568C9.41093 76.2239 9.71838 76.5114 10.0854 76.4992C10.4524 76.487 10.7401 76.1795 10.7278 75.8125Z" fill="white"/>
<path d="M9.83335 70.2602C9.82809 69.893 9.52615 69.5997 9.15896 69.6049C8.79176 69.6102 8.49835 69.9121 8.50361 70.2793C8.50886 70.6465 8.8108 70.9399 9.17799 70.9346C9.54519 70.9294 9.8386 70.6274 9.83335 70.2602Z" fill="white"/>
<path d="M9.93414 64.846C9.92746 64.4789 9.6244 64.1867 9.25722 64.1933C8.89005 64.2 8.59781 64.5031 8.60448 64.8703C8.61117 65.2375 8.91424 65.5297 9.2814 65.5229C9.64858 65.5163 9.94081 65.2132 9.93414 64.846Z" fill="white"/>
<path d="M9.02941 54.5442C9.04239 54.141 8.72609 53.8037 8.32295 53.7907C7.9198 53.7777 7.58246 54.0939 7.56948 54.4971C7.5565 54.9002 7.87279 55.2376 8.27594 55.2506C8.67908 55.2636 9.01643 54.9472 9.02941 54.5442Z" fill="white"/>
<path d="M10.5379 46.3949C10.54 45.9555 10.1854 45.5976 9.74593 45.5954C9.30645 45.5933 8.94849 45.948 8.94642 46.3874C8.94434 46.8269 9.29892 47.1849 9.73839 47.1869C10.1779 47.189 10.5358 46.8345 10.5379 46.3949Z" fill="white"/>
<path d="M11.2228 39.4472C11.2218 38.9173 10.7916 38.4887 10.2618 38.4897C9.73201 38.4907 9.30333 38.9209 9.30432 39.4507C9.3053 39.9805 9.73557 40.4091 10.2654 40.4082C10.7951 40.4072 11.2238 39.9769 11.2228 39.4472Z" fill="white"/>
<path d="M13.3302 33.1759C13.3127 32.535 12.779 32.0296 12.1381 32.0471C11.4972 32.0645 10.9918 32.5983 11.0092 33.2392C11.0267 33.8801 11.5605 34.3855 12.2014 34.3681C12.8423 34.3505 13.3477 33.8169 13.3302 33.1759Z" fill="white"/>
<path d="M14.7901 30.4387C14.764 29.768 14.1991 29.2453 13.5283 29.2714C12.8576 29.2975 12.335 29.8623 12.361 30.5331C12.3871 31.2038 12.952 31.7265 13.6228 31.7004C14.2935 31.6743 14.8161 31.1095 14.7901 30.4387Z" fill="white"/>
<path d="M17.0249 25.4131C16.9874 24.7308 16.404 24.2081 15.7217 24.2455C15.0395 24.283 14.5167 24.8664 14.5541 25.5487C14.5917 26.2309 15.1751 26.7537 15.8573 26.7163C16.5396 26.6788 17.0624 26.0953 17.0249 25.4131Z" fill="white"/>
<path d="M17.3234 22.8432C17.2805 22.1311 16.6684 21.5887 15.9564 21.6315C15.2442 21.6745 14.7017 22.2866 14.7447 22.9987C14.7876 23.7108 15.3997 24.2533 16.1118 24.2103C16.8239 24.1675 17.3664 23.5553 17.3234 22.8432Z" fill="white"/>
<path d="M22.5974 17.3988C22.5559 16.6746 21.9351 16.121 21.2108 16.1626C20.4866 16.2041 19.9332 16.8249 19.9747 17.5491C20.0162 18.2734 20.637 18.8268 21.3613 18.7854C22.0854 18.7438 22.6389 18.1231 22.5974 17.3988Z" fill="white"/>
<path d="M23.1621 102.796C23.1464 102.423 22.8313 102.133 22.4584 102.149C22.0855 102.165 21.7959 102.48 21.8116 102.853C21.8274 103.226 22.1424 103.515 22.5154 103.5C22.8883 103.484 23.1778 103.169 23.1621 102.796Z" fill="white"/>
<path d="M22.1716 99.0285C22.1459 98.6531 21.8207 98.3696 21.4453 98.3953C21.07 98.421 20.7864 98.7461 20.8122 99.1215C20.8378 99.4969 21.163 99.7804 21.5384 99.7547C21.9138 99.729 22.1973 99.4038 22.1716 99.0285Z" fill="white"/>
<path d="M20.1559 95.4283C20.1231 95.0656 19.8025 94.7981 19.4398 94.8308C19.0771 94.8636 18.8095 95.1841 18.8422 95.5469C18.8749 95.9096 19.1955 96.1771 19.5584 96.1444C19.9211 96.1117 20.1886 95.7911 20.1559 95.4283Z" fill="white"/>
<path d="M17.8614 92.9349C17.8275 92.5512 17.489 92.2674 17.1052 92.3013C16.7213 92.3352 16.4377 92.6737 16.4715 93.0576C16.5053 93.4413 16.8439 93.725 17.2277 93.6912C17.6115 93.6573 17.8952 93.3188 17.8614 92.9349Z" fill="white"/>
<path d="M18.1208 87.5588C18.0714 87.1979 17.7389 86.9455 17.378 86.9949C17.0172 87.0443 16.7646 87.3768 16.814 87.7377C16.8636 88.0986 17.1961 88.351 17.5569 88.3016C17.9178 88.2522 18.1703 87.9196 18.1208 87.5588Z" fill="white"/>
<path d="M18.1685 84.4215C18.1075 84.0471 17.7547 83.793 17.3803 83.854C17.006 83.9149 16.752 84.2678 16.8128 84.6421C16.8738 85.0165 17.2266 85.2706 17.601 85.2096C17.9753 85.1487 18.2294 84.7958 18.1685 84.4215Z" fill="white"/>
<path d="M13.8624 75.8915C13.8266 75.529 13.5038 75.2641 13.1413 75.2999C12.7789 75.3355 12.5141 75.6583 12.5497 76.0208C12.5855 76.3834 12.9083 76.6482 13.2708 76.6125C13.6332 76.5768 13.8981 76.2539 13.8624 75.8915Z" fill="white"/>
<path d="M14.0145 74.6902C13.9754 74.328 13.6501 74.0662 13.288 74.1052C12.9258 74.1443 12.664 74.4696 12.7031 74.8317C12.7421 75.1939 13.0674 75.4557 13.4295 75.4166C13.7917 75.3775 14.0535 75.0523 14.0145 74.6902Z" fill="white"/>
<path d="M11.562 63.2216C11.5485 62.8606 11.2449 62.5789 10.884 62.5924C10.5231 62.6059 10.2414 62.9095 10.2549 63.2703C10.2683 63.6313 10.5719 63.913 10.9328 63.8996C11.2938 63.886 11.5755 63.5826 11.562 63.2216Z" fill="white"/>
<path d="M11.3695 59.754C11.3562 59.3809 11.0431 59.0893 10.6701 59.1026C10.297 59.1159 10.0054 59.4291 10.0187 59.8021C10.0321 60.1752 10.3452 60.4668 10.7183 60.4535C11.0912 60.4402 11.3828 60.127 11.3695 59.754Z" fill="white"/>
<path d="M11.3375 45.9132C11.3317 45.4678 10.9659 45.1113 10.5204 45.1171C10.075 45.1229 9.71853 45.4886 9.72431 45.9342C9.73008 46.3796 10.0959 46.7361 10.5413 46.7303C10.9868 46.7245 11.3432 46.3587 11.3375 45.9132Z" fill="white"/>
<path d="M14.657 37.9038C14.625 37.3327 14.1362 36.8957 13.5652 36.9277C12.9941 36.9596 12.5571 37.4485 12.5892 38.0196C12.6211 38.5905 13.11 39.0276 13.681 38.9956C14.2519 38.9636 14.689 38.4748 14.657 37.9038Z" fill="white"/>
<path d="M15.8608 32.6142C15.8293 31.9648 15.2773 31.4639 14.6279 31.4953C13.9785 31.5267 13.4776 32.0787 13.509 32.7281C13.5404 33.3775 14.0924 33.8785 14.7418 33.8471C15.3912 33.8157 15.8922 33.2637 15.8608 32.6142Z" fill="white"/>
<path d="M16.7215 29.8875C16.6885 29.2232 16.1231 28.7113 15.4587 28.7442C14.7943 28.7772 14.2824 29.3426 14.3153 30.007C14.3484 30.6714 14.9137 31.1833 15.5782 31.1504C16.2425 31.1173 16.7544 30.552 16.7215 29.8875Z" fill="white"/>
<path d="M20.4853 23.2388C20.4451 22.5507 19.8545 22.0255 19.1663 22.0659C18.4782 22.1063 17.9531 22.6968 17.9934 23.3849C18.0337 24.0731 18.6243 24.5982 19.3124 24.5579C20.0005 24.5175 20.5257 23.927 20.4853 23.2388Z" fill="white"/>
<path d="M23.2121 19.942C23.1708 19.2419 22.5697 18.7078 21.8696 18.7491C21.1694 18.7905 20.6353 19.3915 20.6767 20.0916C20.718 20.7918 21.319 21.3259 22.0192 21.2845C22.7193 21.2433 23.2534 20.6422 23.2121 19.942Z" fill="white"/>
<path d="M27.3246 14.3384C27.2887 13.6228 26.6796 13.0719 25.964 13.1079C25.2485 13.1438 24.6976 13.753 24.7336 14.4685C24.7695 15.184 25.3787 15.7349 26.0942 15.6989C26.8097 15.6631 27.3606 15.0539 27.3246 14.3384Z" fill="white"/>
<path d="M27.3118 107.638C27.3075 107.28 27.0137 106.993 26.6556 106.997C26.2973 107.002 26.0104 107.295 26.0147 107.654C26.0188 108.012 26.3126 108.299 26.6708 108.294C27.029 108.29 27.3159 107.996 27.3118 107.638Z" fill="white"/>
<path d="M27.2755 105.448C27.2664 105.099 26.9762 104.823 26.6272 104.832C26.2781 104.841 26.0024 105.131 26.0114 105.481C26.0204 105.83 26.3107 106.105 26.6598 106.096C27.0088 106.087 27.2844 105.797 27.2755 105.448Z" fill="white"/>
<path d="M23.653 101.211C23.6329 100.839 23.3143 100.553 22.9417 100.573C22.5689 100.593 22.2832 100.912 22.3034 101.284C22.3236 101.657 22.642 101.943 23.0148 101.923C23.3874 101.903 23.6732 101.584 23.653 101.211Z" fill="white"/>
<path d="M24.5851 98.664C24.5503 98.3136 24.2379 98.0578 23.8875 98.0926C23.537 98.1275 23.2811 98.4398 23.3161 98.7903C23.3509 99.1407 23.6633 99.3965 24.0137 99.3617C24.3642 99.3268 24.62 99.0145 24.5851 98.664Z" fill="white"/>
<path d="M22.9999 96.1657C22.9578 95.813 22.6376 95.5613 22.2849 95.6036C21.9322 95.6458 21.6805 95.9659 21.7228 96.3185C21.765 96.6712 22.0851 96.9229 22.4377 96.8807C22.7904 96.8385 23.0421 96.5184 22.9999 96.1657Z" fill="white"/>
<path d="M26.5606 93.8912C26.475 93.5496 26.1288 93.342 25.7871 93.4276C25.4455 93.5131 25.2379 93.8595 25.3234 94.2011C25.409 94.5427 25.7553 94.7503 26.0969 94.6647C26.4386 94.5792 26.6462 94.2329 26.5606 93.8912Z" fill="white"/>
<path d="M24.1842 89.6373C24.0893 89.2857 23.7273 89.0775 23.3757 89.1725C23.024 89.2674 22.8159 89.6295 22.9109 89.9811C23.0058 90.3327 23.3679 90.5409 23.7195 90.4458C24.0711 90.3509 24.2793 89.9889 24.1842 89.6373Z" fill="white"/>
<path d="M19.3375 83.2136C19.2631 82.8571 18.9137 82.6285 18.5572 82.7029C18.2006 82.7773 17.972 83.1267 18.0464 83.4832C18.1208 83.8398 18.4702 84.0685 18.8267 83.994C19.1832 83.9196 19.412 83.5702 19.3375 83.2136Z" fill="white"/>
<path d="M17.3111 78.1612C17.2416 77.8007 16.893 77.5647 16.5323 77.6342C16.1718 77.7037 15.9358 78.0524 16.0053 78.413C16.0748 78.7736 16.4234 79.0095 16.7841 78.94C17.1446 78.8705 17.3806 78.5219 17.3111 78.1612Z" fill="white"/>
<path d="M13.8687 67.3699C13.8277 66.9988 13.4937 66.7314 13.1226 66.7723C12.7517 66.8133 12.4841 67.1473 12.5251 67.5183C12.5662 67.8892 12.9002 68.1568 13.2711 68.1158C13.6421 68.0748 13.9096 67.7408 13.8687 67.3699Z" fill="white"/>
<path d="M13.0809 55.685C13.0406 55.32 12.712 55.0569 12.347 55.0972C11.982 55.1376 11.7187 55.4662 11.7591 55.8312C11.7995 56.1962 12.128 56.4593 12.4931 56.419C12.8581 56.3787 13.1213 56.05 13.0809 55.685Z" fill="white"/>
<path d="M13.7083 48.9413C13.6602 48.5076 13.2695 48.1948 12.8357 48.2429C12.4019 48.2911 12.0892 48.6818 12.1373 49.1155C12.1854 49.5494 12.5761 49.862 13.0099 49.8139C13.4438 49.7658 13.7565 49.3752 13.7083 48.9413Z" fill="white"/>
<path d="M17.0186 35.7297C16.9612 35.1515 16.4461 34.7294 15.8679 34.7868C15.2898 34.8443 14.8678 35.3594 14.9251 35.9375C14.9825 36.5157 15.4978 36.9377 16.0758 36.8803C16.6539 36.823 17.0761 36.3077 17.0186 35.7297Z" fill="white"/>
<path d="M19.0359 31.7694C18.9715 31.1436 18.412 30.6885 17.7861 30.7528C17.1604 30.8171 16.7051 31.3766 16.7695 32.0024C16.8339 32.6282 17.3934 33.0834 18.0191 33.0191C18.645 32.9548 19.1001 32.3952 19.0359 31.7694Z" fill="white"/>
<path d="M20.4758 26.6902C20.4251 26.0057 19.8293 25.4919 19.1449 25.5426C18.4604 25.5933 17.9466 26.1891 17.9972 26.8735C18.0478 27.558 18.6438 28.0718 19.3282 28.0212C20.0127 27.9706 20.5265 27.3746 20.4758 26.6902Z" fill="white"/>
<path d="M24.7543 20.4712C24.7085 19.7834 24.1137 19.2629 23.4259 19.3089C22.7382 19.3547 22.2177 19.9493 22.2635 20.6371C22.3094 21.325 22.9041 21.8453 23.5919 21.7995C24.2798 21.7537 24.8001 21.1589 24.7543 20.4712Z" fill="white"/>
<path d="M26.5716 16.9083C26.5311 16.1809 25.9086 15.6242 25.1813 15.6648C24.454 15.7053 23.8972 16.3277 23.9378 17.0551C23.9782 17.7824 24.6007 18.3392 25.3281 18.2986C26.0554 18.2581 26.6121 17.6356 26.5716 16.9083Z" fill="white"/>
<path d="M28.951 13.6849C28.9177 12.9964 28.3326 12.4653 27.644 12.4986C26.9555 12.5318 26.4244 13.117 26.4577 13.8056C26.491 14.494 27.0761 15.0252 27.7647 14.9919C28.4531 14.9586 28.9843 14.3734 28.951 13.6849Z" fill="white"/>
<path d="M30.0736 12.3197C30.0444 11.6551 29.4818 11.1401 28.8172 11.1695C28.1526 11.1988 27.6376 11.7613 27.667 12.4259C27.6963 13.0905 28.2588 13.6055 28.9234 13.5761C29.5879 13.5469 30.103 12.9843 30.0736 12.3197Z" fill="white"/>
<path d="M35.6319 111.604C35.6376 111.255 35.3591 110.967 35.01 110.962C34.6608 110.956 34.3732 111.235 34.3676 111.584C34.362 111.933 34.6405 112.221 34.9896 112.226C35.3388 112.232 35.6263 111.953 35.6319 111.604Z" fill="white"/>
<path d="M31.821 110.228C31.823 109.882 31.5442 109.599 31.1981 109.597C30.8518 109.595 30.5695 109.874 30.5674 110.22C30.5652 110.566 30.8442 110.848 31.1903 110.851C31.5365 110.853 31.8188 110.573 31.821 110.228Z" fill="white"/>
<path d="M32.7698 107.315C32.7627 106.962 32.4714 106.683 32.1194 106.69C31.7673 106.697 31.4875 106.988 31.4946 107.34C31.5017 107.692 31.7929 107.972 32.145 107.965C32.4972 107.958 32.7769 107.667 32.7698 107.315Z" fill="white"/>
<path d="M32.9757 104.463C32.9466 104.106 32.6336 103.84 32.2765 103.87C31.9196 103.899 31.6537 104.212 31.6828 104.569C31.712 104.926 32.025 105.192 32.382 105.162C32.739 105.133 33.0048 104.82 32.9757 104.463Z" fill="white"/>
<path d="M32.144 103.154C32.1062 102.798 31.7868 102.54 31.4305 102.578C31.0743 102.616 30.8163 102.935 30.8541 103.292C30.8921 103.648 31.2115 103.906 31.5677 103.868C31.9239 103.83 32.182 103.511 32.144 103.154Z" fill="white"/>
<path d="M27.3274 96.2872C27.2548 95.9395 26.9141 95.7164 26.5665 95.789C26.2188 95.8614 25.9957 96.2021 26.0683 96.5499C26.1408 96.8975 26.4815 97.1206 26.8292 97.0481C27.1768 96.9755 27.3999 96.6348 27.3274 96.2872Z" fill="white"/>
<path d="M35.0918 98.3324C34.9677 97.9868 34.5868 97.8072 34.2412 97.9315C33.8956 98.0556 33.7161 98.4363 33.8402 98.7821C33.9644 99.1277 34.3452 99.3071 34.6908 99.183C35.0364 99.0588 35.216 98.678 35.0918 98.3324Z" fill="white"/>
<path d="M35.6417 96.5776C35.4905 96.2495 35.102 96.1061 34.774 96.2572C34.4459 96.4084 34.3025 96.7969 34.4536 97.1249C34.6048 97.453 34.9932 97.5964 35.3213 97.4453C35.6494 97.2941 35.7928 96.9057 35.6417 96.5776Z" fill="white"/>
<path d="M38.4784 95.2858C38.2734 94.9702 37.8514 94.8805 37.5358 95.0855C37.2203 95.2904 37.1306 95.7123 37.3356 96.0279C37.5405 96.3434 37.9625 96.4331 38.2781 96.2282C38.5936 96.0232 38.6832 95.6013 38.4784 95.2858Z" fill="white"/>
<path d="M23.3231 81.0606C23.1771 80.7236 22.7856 80.5688 22.4486 80.7147C22.1116 80.8608 21.9568 81.2522 22.1028 81.5892C22.2489 81.9262 22.6404 82.081 22.9774 81.935C23.3143 81.7891 23.4691 81.3975 23.3231 81.0606Z" fill="white"/>
<path d="M25.0844 80.4837C24.9023 80.1511 24.485 80.0289 24.1523 80.2111C23.8196 80.3932 23.6975 80.8104 23.8796 81.1432C24.0617 81.4759 24.479 81.598 24.8117 81.4159C25.1444 81.2338 25.2665 80.8164 25.0844 80.4837Z" fill="white"/>
<path d="M16.2844 65.2006C16.1844 64.816 15.7917 64.5853 15.4072 64.6852C15.0226 64.7852 14.7919 65.178 14.8918 65.5625C14.9918 65.9471 15.3845 66.1778 15.7691 66.0779C16.1537 65.9778 16.3844 65.5851 16.2844 65.2006Z" fill="white"/>
<path d="M16.4426 55.5319C16.3248 55.1587 15.9268 54.9518 15.5536 55.0696C15.1805 55.1874 14.9735 55.5854 15.0913 55.9586C15.2091 56.3318 15.6072 56.5387 15.9803 56.4209C16.3535 56.3031 16.5604 55.905 16.4426 55.5319Z" fill="white"/>
<path d="M18.1196 42.0524C18.0008 41.5825 17.5236 41.2979 17.0538 41.4167C16.5839 41.5354 16.2993 42.0125 16.4181 42.4824C16.5368 42.9523 17.0139 43.2369 17.4838 43.1182C17.9537 42.9994 18.2384 42.5222 18.1196 42.0524Z" fill="white"/>
<path d="M22.4546 29.8355C22.347 29.179 21.7277 28.7339 21.0712 28.8415C20.4147 28.9489 19.9697 29.5682 20.0772 30.2247C20.1846 30.8813 20.804 31.3263 21.4604 31.2188C22.1169 31.1113 22.562 30.492 22.4546 29.8355Z" fill="white"/>
<path d="M22.6786 27.0993C22.5992 26.4176 21.9821 25.9294 21.3005 26.0088C20.6188 26.0884 20.1306 26.7054 20.21 27.3871C20.2895 28.0688 20.9066 28.557 21.5883 28.4775C22.27 28.398 22.7581 27.781 22.6786 27.0993Z" fill="white"/>
<path d="M29.8752 18.1059C29.8166 17.4252 29.2172 16.9207 28.5364 16.9794C27.8556 17.0381 27.3513 17.6375 27.4099 18.3183C27.4686 18.999 28.068 19.5034 28.7488 19.4448C29.4296 19.3861 29.9339 18.7866 29.8752 18.1059Z" fill="white"/>
<path d="M31.2681 15.1358C31.2284 14.4778 30.6628 13.9765 30.0047 14.0162C29.3467 14.0558 28.8455 14.6215 28.8851 15.2795C28.9248 15.9376 29.4905 16.4388 30.1485 16.3991C30.8065 16.3594 31.3077 15.7938 31.2681 15.1358Z" fill="white"/>
<path d="M36.1102 10.8285C36.0862 10.2691 35.6133 9.83513 35.0538 9.85917C34.4945 9.88319 34.0606 10.3561 34.0846 10.9155C34.1086 11.4748 34.5815 11.9088 35.1409 11.8848C35.7003 11.8608 36.1343 11.3879 36.1102 10.8285Z" fill="white"/>
<path d="M38.3613 8.55431C38.3415 7.95563 37.84 7.48644 37.2413 7.50635C36.6426 7.52626 36.1734 8.02774 36.1934 8.62642C36.2132 9.2251 36.7147 9.69429 37.3134 9.67438C37.9121 9.65447 38.3813 9.15299 38.3613 8.55431Z" fill="white"/>
<path d="M36.6898 7.92669C36.673 7.3249 36.1715 6.85066 35.5697 6.86744C34.9679 6.88421 34.4936 7.38567 34.5104 7.98746C34.5272 8.58925 35.0287 9.0635 35.6305 9.04671C36.2322 9.02993 36.7066 8.52848 36.6898 7.92669Z" fill="white"/>
<path d="M42.3275 115.987C42.3422 115.637 42.0713 115.343 41.7224 115.329C41.3735 115.313 41.0789 115.585 41.0642 115.934C41.0495 116.282 41.3204 116.577 41.6693 116.592C42.0182 116.606 42.3128 116.336 42.3275 115.987Z" fill="white"/>
<path d="M39.193 113.935C39.2042 113.57 38.9182 113.267 38.5541 113.255C38.1901 113.244 37.8858 113.53 37.8747 113.894C37.8635 114.259 38.1495 114.563 38.5135 114.574C38.8776 114.585 39.1818 114.299 39.193 113.935Z" fill="white"/>
<path d="M38.636 111.905C38.6431 111.532 38.3462 111.224 37.9731 111.217C37.5999 111.209 37.2916 111.506 37.2846 111.879C37.2774 112.252 37.5742 112.561 37.9474 112.568C38.3205 112.575 38.6288 112.279 38.636 111.905Z" fill="white"/>
<path d="M36.163 107.117C36.1457 106.75 35.8342 106.466 35.4675 106.484C35.1006 106.501 34.8173 106.812 34.8346 107.179C34.8519 107.546 35.1633 107.829 35.5302 107.812C35.8969 107.795 36.1803 107.483 36.163 107.117Z" fill="white"/>
<path d="M36.1604 105.255C36.1242 104.893 35.801 104.628 35.4385 104.664C35.0761 104.701 34.8117 105.024 34.8479 105.386C34.8841 105.748 35.2073 106.013 35.5697 105.977C35.9321 105.941 36.1966 105.617 36.1604 105.255Z" fill="white"/>
<path d="M38.1476 104.08C38.0859 103.727 37.7498 103.491 37.397 103.553C37.0441 103.615 36.8081 103.951 36.8698 104.304C36.9315 104.657 37.2676 104.893 37.6204 104.831C37.9733 104.769 38.2093 104.433 38.1476 104.08Z" fill="white"/>
<path d="M36.2671 100.503C36.167 100.162 35.8096 99.9669 35.4688 100.067C35.128 100.167 34.933 100.525 35.0331 100.865C35.1332 101.206 35.4906 101.401 35.8314 101.301C36.1722 101.201 36.3673 100.844 36.2671 100.503Z" fill="white"/>
<path d="M47.2467 100.416C47.0593 100.114 46.6628 100.021 46.3611 100.208C46.0593 100.396 45.9665 100.792 46.1538 101.094C46.3411 101.396 46.7376 101.488 47.0394 101.301C47.3411 101.114 47.434 100.717 47.2467 100.416Z" fill="white"/>
<path d="M49.8083 99.0355C49.5925 98.7803 49.2108 98.7483 48.9556 98.964C48.7004 99.1798 48.6685 99.5615 48.8843 99.8167C49.0999 100.072 49.4816 100.104 49.7368 99.888C49.992 99.6723 50.0239 99.2906 49.8083 99.0355Z" fill="white"/>
<path d="M50.2178 95.7847C49.9275 95.5699 49.5178 95.6311 49.303 95.9214C49.0881 96.2118 49.1493 96.6213 49.4397 96.8362C49.73 97.051 50.1397 96.9898 50.3545 96.6995C50.5694 96.4091 50.5082 95.9996 50.2178 95.7847Z" fill="white"/>
<path d="M43.8955 93.8388C43.6183 93.598 43.1983 93.6276 42.9575 93.9048C42.7167 94.1821 42.7462 94.602 43.0234 94.8429C43.3007 95.0836 43.7207 95.0542 43.9615 94.7769C44.2024 94.4997 44.1728 94.0797 43.8955 93.8388Z" fill="white"/>
<path d="M42.9062 91.1172C42.5802 90.9061 42.1448 90.9992 41.9338 91.3251C41.7227 91.6511 41.8159 92.0865 42.1419 92.2974C42.4678 92.5085 42.9031 92.4154 43.1142 92.0894C43.3252 91.7635 43.2321 91.3282 42.9062 91.1172Z" fill="white"/>
<path d="M39.2511 87.6874C38.8814 87.4914 38.4229 87.6321 38.2269 88.0017C38.0308 88.3714 38.1716 88.8299 38.5413 89.0259C38.9109 89.222 39.3695 89.0813 39.5654 88.7115C39.7615 88.3419 39.6207 87.8833 39.2511 87.6874Z" fill="white"/>
<path d="M22.1541 69.1129C21.9078 68.7936 21.4491 68.7343 21.1297 68.9807C20.8104 69.227 20.7512 69.6856 20.9975 70.0049C21.2438 70.3243 21.7025 70.3836 22.0218 70.1373C22.3412 69.8909 22.4004 69.4323 22.1541 69.1129Z" fill="white"/>
<path d="M20.472 51.2491C20.2196 50.8638 19.7028 50.756 19.3175 51.0082C18.9322 51.2605 18.8244 51.7774 19.0767 52.1627C19.3289 52.548 19.8458 52.6558 20.2311 52.4035C20.6164 52.1511 20.7242 51.6343 20.472 51.2491Z" fill="white"/>
<path d="M22.73 35.3799C22.548 34.8346 21.9584 34.5399 21.413 34.722C20.8676 34.904 20.573 35.4936 20.755 36.0389C20.9369 36.5843 21.5266 36.8789 22.072 36.697C22.6174 36.5149 22.9119 35.9253 22.73 35.3799Z" fill="white"/>
<path d="M27.3011 25.9345C27.1662 25.3169 26.5563 24.9254 25.9388 25.0603C25.3212 25.195 24.9298 25.8049 25.0645 26.4225C25.1993 27.0401 25.8092 27.4315 26.4268 27.2967C27.0444 27.162 27.4358 26.5521 27.3011 25.9345Z" fill="white"/>
<path d="M32.6952 19.5725C32.593 18.9609 32.0145 18.5478 31.4028 18.6501C30.7913 18.7522 30.3782 19.3308 30.4803 19.9423C30.5825 20.554 31.1611 20.967 31.7726 20.8648C32.3843 20.7627 32.7973 20.1841 32.6952 19.5725Z" fill="white"/>
<path d="M36.4711 15.2529C36.4013 14.6458 35.8526 14.2103 35.2455 14.2802C34.6384 14.35 34.203 14.8987 34.2729 15.5058C34.3427 16.1128 34.8915 16.5483 35.4985 16.4785C36.1056 16.4086 36.5411 15.8598 36.4711 15.2529Z" fill="white"/>
<path d="M39.2197 11.8069C39.1791 11.2455 38.6911 10.8232 38.1297 10.8637C37.5682 10.9042 37.146 11.3921 37.1865 11.9536C37.227 12.515 37.715 12.9373 38.2764 12.8968C38.8378 12.8564 39.2601 12.3684 39.2197 11.8069Z" fill="white"/>
<path d="M39.5235 8.05723C39.5046 7.46755 39.0112 7.00491 38.4214 7.02388C37.8318 7.04285 37.3692 7.53626 37.3881 8.12594C37.4071 8.71562 37.9005 9.17826 38.4902 9.15929C39.0798 9.14032 39.5425 8.64691 39.5235 8.05723Z" fill="white"/>
<path d="M41.0852 5.52837C41.0751 4.98966 40.6302 4.56115 40.0915 4.57128C39.5527 4.58142 39.1242 5.02634 39.1343 5.56506C39.1445 6.10378 39.5895 6.53228 40.1281 6.52215C40.6668 6.51202 41.0953 6.06708 41.0852 5.52837Z" fill="white"/>
<path d="M45.0692 3.21686C45.0651 2.76235 44.6932 2.39729 44.2387 2.40146C43.7842 2.40564 43.4191 2.77749 43.4233 3.23199C43.4275 3.68651 43.7993 4.05157 44.2539 4.04739C44.7083 4.04322 45.0734 3.67137 45.0692 3.21686Z" fill="white"/>
<path d="M46.7187 116.456C46.7342 116.12 46.4738 115.834 46.137 115.819C45.8002 115.803 45.5147 116.063 45.4992 116.4C45.4837 116.737 45.7442 117.022 46.081 117.038C46.4177 117.053 46.7033 116.793 46.7187 116.456Z" fill="white"/>
<path d="M47.6219 116.018C47.6369 115.681 47.376 115.396 47.0392 115.381C46.7024 115.367 46.4172 115.628 46.4022 115.964C46.3872 116.301 46.6481 116.587 46.9849 116.601C47.3216 116.616 47.6068 116.355 47.6219 116.018Z" fill="white"/>
<path d="M41.737 112.654C41.7454 112.301 41.4667 112.009 41.1147 112C40.7625 111.993 40.4704 112.271 40.462 112.623C40.4537 112.976 40.7323 113.267 41.0844 113.276C41.4365 113.284 41.7287 113.005 41.737 112.654Z" fill="white"/>
<path d="M43.3748 110.929C43.3724 110.582 43.0898 110.304 42.7436 110.306C42.3975 110.308 42.1188 110.591 42.1214 110.938C42.1238 111.284 42.4064 111.562 42.7526 111.56C43.0987 111.557 43.3773 111.275 43.3748 110.929Z" fill="white"/>
<path d="M46.1539 109.229C46.1291 108.884 45.829 108.624 45.4837 108.649C45.1385 108.674 44.8787 108.974 44.9035 109.319C44.9284 109.665 45.2284 109.924 45.5736 109.899C45.9189 109.874 46.1787 109.574 46.1539 109.229Z" fill="white"/>
<path d="M43.3305 105.936C43.2697 105.593 42.9417 105.363 42.5978 105.424C42.254 105.485 42.0246 105.813 42.0853 106.156C42.1461 106.5 42.474 106.73 42.8179 106.669C43.1617 106.608 43.3912 106.28 43.3305 105.936Z" fill="white"/>
<path d="M61.2439 102.273C61.0593 101.984 60.6751 101.899 60.3859 102.084C60.0966 102.268 60.0118 102.653 60.1965 102.942C60.3811 103.231 60.7653 103.316 61.0545 103.131C61.3437 102.947 61.4286 102.562 61.2439 102.273Z" fill="white"/>
<path d="M57.7994 101.602C57.597 101.318 57.2022 101.251 56.9177 101.454C56.6332 101.656 56.5667 102.051 56.7691 102.336C56.9716 102.62 57.3664 102.687 57.6508 102.484C57.9353 102.282 58.0018 101.887 57.7994 101.602Z" fill="white"/>
<path d="M69.5432 94.8696C69.2119 94.7414 68.8395 94.9059 68.7112 95.2371C68.5829 95.5683 68.7475 95.9409 69.0787 96.0691C69.4099 96.1973 69.7825 96.0328 69.9107 95.7016C70.0389 95.3704 69.8744 94.9979 69.5432 94.8696Z" fill="white"/>
<path d="M70.8971 92.9495C70.5629 92.8862 70.2406 93.1058 70.1774 93.4399C70.1141 93.7742 70.3337 94.0964 70.6678 94.1597C71.0021 94.223 71.3243 94.0034 71.3876 93.6691C71.4509 93.335 71.2313 93.0127 70.8971 92.9495Z" fill="white"/>
<path d="M90.0364 58.5282C90.002 59.075 90.4173 59.5462 90.964 59.5806C91.5107 59.6151 91.9819 59.1998 92.0164 58.653C92.0509 58.1063 91.6356 57.6351 91.0888 57.6006C90.5421 57.5662 90.0709 57.9815 90.0364 58.5282Z" fill="white"/>
<path d="M67.7338 89.3268C67.3709 89.4649 67.1886 89.8711 67.3267 90.234C67.4648 90.5968 67.8709 90.7791 68.2339 90.641C68.5968 90.5029 68.779 90.0968 68.641 89.7339C68.5029 89.371 68.0967 89.1887 67.7338 89.3268Z" fill="white"/>
<path d="M39.3943 85.7567C38.9883 85.6439 38.5677 85.8816 38.4548 86.2876C38.342 86.6937 38.5797 87.1142 38.9857 87.2271C39.3918 87.3399 39.8124 87.1022 39.9252 86.6962C40.038 86.2901 39.8003 85.8695 39.3943 85.7567Z" fill="white"/>
<path d="M25.9784 71.2388C25.6325 71.0089 25.1655 71.103 24.9357 71.4491C24.7058 71.795 24.7999 72.2618 25.1459 72.4917C25.4918 72.7216 25.9587 72.6275 26.1886 72.2815C26.4185 71.9355 26.3244 71.4687 25.9784 71.2388Z" fill="white"/>
<path d="M22.1698 47.0795C21.8735 46.6773 21.3071 46.5914 20.9048 46.8877C20.5025 47.1841 20.4166 47.7505 20.713 48.1528C21.0094 48.5551 21.5758 48.641 21.978 48.3446C22.3804 48.0482 22.4662 47.4818 22.1698 47.0795Z" fill="white"/>
<path d="M24.7152 39.4095C24.4045 38.9329 23.7663 38.7985 23.2897 39.1092C22.8131 39.4199 22.6786 40.0581 22.9893 40.5347C23.3001 41.0113 23.9383 41.1457 24.4148 40.835C24.8914 40.5243 25.0259 39.8862 24.7152 39.4095Z" fill="white"/>
<path d="M28.6056 27.511C28.4125 26.9154 27.773 26.5892 27.1775 26.7824C26.582 26.9756 26.2558 27.615 26.4489 28.2105C26.6421 28.806 27.2815 29.1323 27.877 28.9391C28.4726 28.7459 28.7988 28.1065 28.6056 27.511Z" fill="white"/>
<path d="M37.9429 17.9926C37.8045 17.3913 37.2047 17.016 36.6034 17.1546C36.0021 17.293 35.6268 17.8928 35.7653 18.4941C35.9038 19.0954 36.5036 19.4707 37.1049 19.3321C37.7062 19.1937 38.0814 18.5939 37.9429 17.9926Z" fill="white"/>
<path d="M41.6097 13.5096C41.5393 13.0088 41.0763 12.6598 40.5755 12.7301C40.0747 12.8004 39.7258 13.2634 39.7961 13.7642C39.8664 14.2649 40.3294 14.6139 40.8302 14.5437C41.3309 14.4733 41.6799 14.0103 41.6097 13.5096Z" fill="white"/>
<path d="M45.7072 9.90389C45.6655 9.43013 45.2476 9.07988 44.7738 9.1216C44.3 9.16331 43.9499 9.5812 43.9915 10.055C44.0332 10.5287 44.4511 10.879 44.9249 10.8373C45.3987 10.7955 45.7489 10.3777 45.7072 9.90389Z" fill="white"/>
<path d="M47.0642 6.74448C47.045 6.28735 46.6588 5.9324 46.2016 5.95168C45.7445 5.97095 45.3895 6.35717 45.4088 6.81429C45.428 7.27143 45.8143 7.62638 46.2714 7.6071C46.7285 7.58782 47.0835 7.20162 47.0642 6.74448Z" fill="white"/>
<path d="M44.7341 6.11861C44.7207 5.67031 44.3464 5.31776 43.898 5.33118C43.4498 5.34461 43.0972 5.71891 43.1106 6.16722C43.124 6.61553 43.4984 6.96807 43.9467 6.95465C44.3949 6.94123 44.7475 6.56692 44.7341 6.11861Z" fill="white"/>
<path d="M45.1781 3.93004C45.1716 3.48158 44.8029 3.12324 44.3544 3.12966C43.906 3.13609 43.5476 3.50485 43.554 3.95331C43.5605 4.40177 43.9292 4.76011 44.3777 4.75369C44.8262 4.74726 45.1845 4.3785 45.1781 3.93004Z" fill="white"/>
<path d="M52.508 117.924C52.5254 117.6 52.2764 117.322 51.9518 117.304C51.6272 117.287 51.3499 117.537 51.3324 117.861C51.315 118.186 51.564 118.463 51.8887 118.48C52.2133 118.498 52.4906 118.249 52.508 117.924Z" fill="white"/>
<path d="M49.761 116.132C49.7764 115.798 49.5183 115.515 49.1846 115.5C48.8508 115.485 48.5678 115.742 48.5524 116.076C48.537 116.41 48.7951 116.693 49.129 116.709C49.4627 116.724 49.7458 116.465 49.761 116.132Z" fill="white"/>
<path d="M48.1432 113.441C48.1517 113.089 47.8732 112.797 47.521 112.788C47.169 112.78 46.8766 113.059 46.8682 113.411C46.8597 113.763 47.1382 114.055 47.4904 114.063C47.8424 114.072 48.1348 113.794 48.1432 113.441Z" fill="white"/>
<path d="M55.6767 110.873C55.6572 110.537 55.3684 110.28 55.0319 110.3C54.6953 110.319 54.4383 110.608 54.458 110.944C54.4776 111.281 54.7663 111.538 55.1028 111.518C55.4395 111.499 55.6964 111.211 55.6767 110.873Z" fill="white"/>
<path d="M56.7136 109.054C56.6673 108.708 56.3491 108.465 56.003 108.512C55.6569 108.558 55.4139 108.876 55.4604 109.222C55.5068 109.569 55.825 109.811 56.171 109.765C56.5172 109.718 56.7601 109.401 56.7136 109.054Z" fill="white"/>
<path d="M59.1826 106.362C59.0921 106.046 58.7632 105.864 58.4478 105.954C58.1323 106.045 57.9499 106.374 58.0404 106.689C58.1308 107.004 58.4597 107.187 58.7752 107.096C59.0906 107.006 59.273 106.677 59.1826 106.362Z" fill="white"/>
<path d="M74.2451 98.4466C74.002 98.1634 73.5753 98.1309 73.292 98.3739C73.0088 98.617 72.9763 99.0436 73.2194 99.3269C73.4624 99.6101 73.8891 99.6428 74.1724 99.3996C74.4556 99.1565 74.4882 98.7299 74.2451 98.4466Z" fill="white"/>
<path d="M80.6405 93.4188C80.3374 93.2009 79.9151 93.2701 79.6973 93.5731C79.4794 93.8763 79.5486 94.2986 79.8517 94.5163C80.1548 94.7342 80.5771 94.665 80.7949 94.362C81.0128 94.0588 80.9436 93.6365 80.6405 93.4188Z" fill="white"/>
<path d="M91.8925 75.8516C91.4189 75.9391 91.1059 76.3939 91.1934 76.8675C91.2809 77.3411 91.7358 77.6541 92.2093 77.5666C92.683 77.4791 92.996 77.0242 92.9085 76.5506C92.821 76.0771 92.3661 75.7641 91.8925 75.8516Z" fill="white"/>
<path d="M72.0219 43.2883C72.5003 43.7928 73.2972 43.8141 73.8017 43.3357C74.3064 42.8574 74.3277 42.0604 73.8493 41.5558C73.3708 41.0512 72.574 41.03 72.0694 41.5083C71.5647 41.9867 71.5434 42.7836 72.0219 43.2883Z" fill="white"/>
<path d="M79.0915 46.7548C79.6591 47.0718 80.3762 46.8687 80.6934 46.3011C81.0104 45.7335 80.8072 45.0162 80.2396 44.6992C79.672 44.3822 78.9548 44.5853 78.6378 45.1529C78.3206 45.7205 78.5238 46.4377 79.0915 46.7548Z" fill="white"/>
<path d="M84.9407 51.7034C85.3762 52.1363 86.0801 52.1341 86.513 51.6986C86.9459 51.263 86.9437 50.5591 86.5082 50.1262C86.0726 49.6933 85.3687 49.6955 84.9358 50.1311C84.5029 50.5666 84.5051 51.2707 84.9407 51.7034Z" fill="white"/>
<path d="M65.6514 88.2192C65.3247 88.4609 65.2556 88.9215 65.4972 89.2484C65.7388 89.5751 66.1995 89.6442 66.5262 89.4026C66.8531 89.161 66.9221 88.7003 66.6805 88.3735C66.439 88.0467 65.9782 87.9777 65.6514 88.2192Z" fill="white"/>
<path d="M40.8816 84.3319C40.4333 84.3485 40.0835 84.7253 40.1001 85.1734C40.1166 85.6217 40.4934 85.9715 40.9417 85.9549C41.3898 85.9383 41.7398 85.5615 41.7232 85.1133C41.7065 84.6651 41.3298 84.3152 40.8816 84.3319Z" fill="white"/>
<path d="M24.8518 61.4744C24.4545 61.2662 23.9637 61.4194 23.7554 61.8167C23.5473 62.2139 23.7004 62.7047 24.0978 62.9129C24.495 63.1212 24.9858 62.9679 25.194 62.5707C25.4023 62.1734 25.249 61.6826 24.8518 61.4744Z" fill="white"/>
<path d="M29.0447 32.1502C28.73 31.616 28.0418 31.4379 27.5075 31.7526C26.9731 32.0673 26.7952 32.7555 27.1098 33.2898C27.4246 33.8242 28.1128 34.0022 28.6471 33.6875C29.1814 33.3727 29.3594 32.6845 29.0447 32.1502Z" fill="white"/>
<path d="M35.7725 22.1286C35.5709 21.5646 34.9501 21.2708 34.386 21.4724C33.822 21.674 33.5282 22.2947 33.7298 22.8588C33.9314 23.4228 34.5522 23.7166 35.1163 23.515C35.6803 23.3134 35.9741 22.6927 35.7725 22.1286Z" fill="white"/>
<path d="M41.4461 15.7696C41.3324 15.246 40.8159 14.9137 40.2923 15.0274C39.7686 15.141 39.4363 15.6577 39.55 16.1813C39.6637 16.7048 40.1803 17.0371 40.704 16.9235C41.2275 16.8098 41.5598 16.2931 41.4461 15.7696Z" fill="white"/>
<path d="M44.1861 12.7293C44.1122 12.2382 43.6541 11.9 43.163 11.974C42.6718 12.0479 42.3336 12.506 42.4076 12.9971C42.4816 13.4882 42.9396 13.8264 43.4308 13.7525C43.9219 13.6785 44.2601 13.2204 44.1861 12.7293Z" fill="white"/>
<path d="M47.7167 9.12806C47.6754 8.6482 47.253 8.29261 46.7731 8.33381C46.2934 8.37502 45.9377 8.79742 45.979 9.27728C46.0202 9.75713 46.4426 10.1127 46.9224 10.0715C47.4023 10.0303 47.7579 9.60792 47.7167 9.12806Z" fill="white"/>
<path d="M51.6975 7.37413C51.6635 6.91483 51.2637 6.56997 50.8044 6.60386C50.3452 6.63776 50.0003 7.03757 50.0341 7.49687C50.0681 7.95617 50.4679 8.30103 50.9272 8.26714C51.3864 8.23324 51.7314 7.83343 51.6975 7.37413Z" fill="white"/>
<path d="M52.6821 5.0454C52.6628 4.59729 52.2839 4.24968 51.8359 4.26895C51.3877 4.28824 51.0402 4.66712 51.0594 5.11521C51.0787 5.56331 51.4575 5.91093 51.9057 5.89165C52.3537 5.87237 52.7014 5.49349 52.6821 5.0454Z" fill="white"/>
<path d="M52.1282 1.75055C52.1241 1.34118 51.789 1.01266 51.3796 1.01676C50.9702 1.02086 50.6418 1.35603 50.6458 1.76538C50.6499 2.17475 50.9851 2.50328 51.3945 2.49917C51.8038 2.49507 52.1324 2.1599 52.1282 1.75055Z" fill="white"/>
<path d="M58.5553 117.733C58.5737 117.403 58.3205 117.12 57.99 117.101C57.6593 117.083 57.3764 117.336 57.358 117.667C57.3397 117.998 57.5928 118.281 57.9233 118.299C58.254 118.318 58.5368 118.065 58.5553 117.733Z" fill="white"/>
<path d="M54.1771 116.53C54.1934 116.203 53.941 115.923 53.6133 115.907C53.2856 115.891 53.0067 116.144 52.9904 116.471C52.9741 116.798 53.2265 117.077 53.5543 117.094C53.882 117.11 54.1608 116.857 54.1771 116.53Z" fill="white"/>
<path d="M54.9565 112.92C54.9573 112.589 54.6896 112.32 54.3584 112.319C54.0273 112.318 53.7582 112.586 53.7573 112.917C53.7565 113.248 54.0242 113.517 54.3554 113.518C54.6865 113.519 54.9556 113.252 54.9565 112.92Z" fill="white"/>
<path d="M55.2048 112.474C55.2019 112.142 54.9312 111.876 54.6001 111.879C54.269 111.881 54.0029 112.153 54.0058 112.484C54.0086 112.815 54.2794 113.081 54.6105 113.078C54.9415 113.075 55.2076 112.804 55.2048 112.474Z" fill="white"/>
<path d="M59.5638 109.028C59.5177 108.691 59.2071 108.456 58.8701 108.502C58.533 108.548 58.2973 108.859 58.3434 109.196C58.3896 109.533 58.7001 109.768 59.0371 109.723C59.3741 109.676 59.61 109.366 59.5638 109.028Z" fill="white"/>
<path d="M64.0493 107.065C63.9756 106.739 63.6518 106.535 63.3258 106.609C62.9999 106.682 62.7955 107.006 62.8691 107.332C62.9429 107.658 63.2668 107.863 63.5926 107.789C63.9186 107.715 64.123 107.391 64.0493 107.065Z" fill="white"/>
<path d="M77.4772 99.904C77.3127 99.5892 76.9241 99.4675 76.6093 99.6321C76.2946 99.7966 76.1728 100.185 76.3373 100.5C76.5019 100.815 76.8905 100.936 77.2053 100.772C77.5201 100.607 77.6418 100.219 77.4772 99.904Z" fill="white"/>
<path d="M85.1819 90.779C84.8639 90.5458 84.417 90.6144 84.1838 90.9323C83.9506 91.2502 84.0191 91.697 84.3371 91.9304C84.655 92.1636 85.1018 92.095 85.335 91.7771C85.5684 91.4592 85.4998 91.0124 85.1819 90.779Z" fill="white"/>
<path d="M90.002 45.0434C89.6624 45.4342 89.7038 46.0263 90.0946 46.3659C90.4855 46.7055 91.0775 46.664 91.4171 46.2732C91.7567 45.8824 91.7153 45.2903 91.3245 44.9507C90.9337 44.6111 90.3416 44.6526 90.002 45.0434Z" fill="white"/>
<path d="M58.0792 51.6467C58.7612 52.0366 59.6302 51.7998 60.0201 51.1176C60.41 50.4356 60.1731 49.5666 59.491 49.1767C58.8089 48.7869 57.94 49.0237 57.5501 49.7057C57.1602 50.3879 57.397 51.2569 58.0792 51.6467Z" fill="white"/>
<path d="M56.6231 68.7528C57.1923 68.0675 57.0983 67.0503 56.4128 66.481C55.7274 65.9116 54.7104 66.0058 54.141 66.6912C53.5717 67.3765 53.6658 68.3937 54.3511 68.963C55.0365 69.5324 56.0537 69.4382 56.6231 68.7528Z" fill="white"/>
<path d="M65.7891 67.4487C65.0881 66.9862 64.1449 67.1795 63.6824 67.8804C63.2198 68.5814 63.4131 69.5246 64.1141 69.9872C64.8151 70.4497 65.7583 70.2564 66.2208 69.5554C66.6833 68.8545 66.49 67.9112 65.7891 67.4487Z" fill="white"/>
<path d="M77.7701 78.5831C77.9857 79.0768 78.5609 79.3023 79.0546 79.0866C79.5483 78.871 79.7738 78.2958 79.5582 77.8021C79.3425 77.3084 78.7674 77.0829 78.2735 77.2985C77.7798 77.5142 77.5544 78.0893 77.7701 78.5831Z" fill="white"/>
<path d="M38.2318 78.7012C37.8144 78.8812 37.622 79.3655 37.802 79.7829C37.982 80.2002 38.4662 80.3927 38.8836 80.2127C39.301 80.0327 39.4934 79.5484 39.3134 79.131C39.1334 78.7137 38.6492 78.5212 38.2318 78.7012Z" fill="white"/>
<path d="M27.0859 54.9199C26.6179 54.7937 26.1364 55.0708 26.0103 55.5387C25.8842 56.0067 26.1614 56.4883 26.6293 56.6144C27.0973 56.7405 27.5788 56.4634 27.7049 55.9954C27.831 55.5275 27.5538 55.0459 27.0859 54.9199Z" fill="white"/>
<path d="M30.8719 33.3666C30.4644 32.8835 29.7423 32.8223 29.2591 33.2298C28.776 33.6374 28.7147 34.3596 29.1223 34.8427C29.5299 35.3259 30.252 35.3871 30.7351 34.9795C31.2183 34.572 31.2796 33.8498 30.8719 33.3666Z" fill="white"/>
<path d="M38.0709 22.5684C37.8175 22.0322 37.1774 21.8031 36.6412 22.0566C36.1052 22.3101 35.8761 22.9501 36.1295 23.4862C36.3829 24.0223 37.0231 24.2515 37.5591 23.9981C38.0952 23.7445 38.3243 23.1045 38.0709 22.5684Z" fill="white"/>
<path d="M47.7334 13.9522C47.6144 13.4792 47.1345 13.1924 46.6616 13.3115C46.1887 13.4305 45.9019 13.9104 46.0209 14.3832C46.14 14.8561 46.6198 15.143 47.0928 15.024C47.5657 14.9048 47.8525 14.4251 47.7334 13.9522Z" fill="white"/>
<path d="M49.028 12.858C48.9261 12.3996 48.472 12.1105 48.0136 12.2124C47.5552 12.3143 47.2662 12.7684 47.3681 13.2268C47.4699 13.6852 47.9241 13.9743 48.3825 13.8724C48.8409 13.7705 49.1299 13.3164 49.028 12.858Z" fill="white"/>
<path d="M54.6064 7.93728C54.5601 7.49117 54.161 7.167 53.7149 7.21326C53.2687 7.2595 52.9446 7.65864 52.9908 8.10476C53.0371 8.55089 53.4363 8.87504 53.8823 8.82879C54.3285 8.78254 54.6526 8.3834 54.6064 7.93728Z" fill="white"/>
<path d="M57.3932 6.04829C57.3625 5.64008 57.0067 5.334 56.5985 5.36467C56.1903 5.39533 55.8842 5.75113 55.9148 6.15935C55.9455 6.56758 56.3013 6.87365 56.7096 6.84299C57.1178 6.81232 57.4239 6.45652 57.3932 6.04829Z" fill="white"/>
<path d="M55.1377 4.84981C55.1167 4.41988 54.7511 4.08838 54.3212 4.10941C53.8912 4.13043 53.5598 4.496 53.5808 4.92594C53.6018 5.35587 53.9674 5.68736 54.3973 5.66634C54.8272 5.64532 55.1588 5.27974 55.1377 4.84981Z" fill="white"/>
<path d="M55.6764 1.25574C55.6714 0.858439 55.3453 0.540411 54.948 0.545407C54.5507 0.550405 54.2327 0.876535 54.2376 1.27384C54.2426 1.67115 54.5688 1.98917 54.9661 1.98417C55.3634 1.97918 55.6814 1.65305 55.6764 1.25574Z" fill="white"/>
<path d="M62.2387 117.701C62.2572 117.376 62.0091 117.098 61.6845 117.08C61.36 117.061 61.0818 117.31 61.0634 117.634C61.0448 117.959 61.2929 118.237 61.6174 118.256C61.942 118.274 62.2202 118.025 62.2387 117.701Z" fill="white"/>
<path d="M60.3243 116.498C60.3416 116.168 60.0877 115.885 59.757 115.869C59.4264 115.851 59.1443 116.104 59.1268 116.436C59.1095 116.767 59.3634 117.048 59.6941 117.065C60.0247 117.083 60.3068 116.829 60.3243 116.498Z" fill="white"/>
<path d="M61.5926 114.962C61.6057 114.638 61.3529 114.363 61.028 114.351C60.7032 114.338 60.4293 114.59 60.4162 114.915C60.4033 115.24 60.656 115.514 60.9808 115.527C61.3057 115.54 61.5796 115.287 61.5926 114.962Z" fill="white"/>
<path d="M69.3631 110.004C69.3446 109.676 69.064 109.426 68.7364 109.444C68.4088 109.463 68.1583 109.743 68.1769 110.071C68.1954 110.399 68.4761 110.649 68.8037 110.63C69.1312 110.612 69.3818 110.331 69.3631 110.004Z" fill="white"/>
<path d="M72.1581 106.676C72.0981 106.32 71.7606 106.08 71.4044 106.14C71.0482 106.2 70.8082 106.538 70.8684 106.894C70.9284 107.25 71.2659 107.49 71.6221 107.43C71.9782 107.37 72.2182 107.032 72.1581 106.676Z" fill="white"/>
<path d="M76.7299 102.838C76.6205 102.481 76.2425 102.281 75.8856 102.39C75.5288 102.5 75.3282 102.878 75.4376 103.235C75.5471 103.591 75.9251 103.792 76.2819 103.683C76.6388 103.573 76.8393 103.195 76.7299 102.838Z" fill="white"/>
<path d="M95.5489 81.129C95.2079 80.8664 94.7185 80.9301 94.4559 81.2712C94.1935 81.6124 94.2572 82.1018 94.5982 82.3643C94.9393 82.6268 95.4287 82.5631 95.6913 82.222C95.9538 81.8809 95.89 81.3916 95.5489 81.129Z" fill="white"/>
<path d="M98.0753 67.4122C97.63 67.3584 97.2255 67.6759 97.1717 68.1212C97.118 68.5664 97.4355 68.9709 97.8808 69.0247C98.326 69.0783 98.7305 68.7609 98.7843 68.3157C98.8379 67.8704 98.5205 67.4659 98.0753 67.4122Z" fill="white"/>
<path d="M59.6216 45.0326C59.9118 45.6942 60.6834 45.9952 61.3449 45.705C62.0066 45.4149 62.3075 44.6433 62.0174 43.9816C61.7272 43.3201 60.9556 43.019 60.2939 43.3093C59.6324 43.5995 59.3314 44.3711 59.6216 45.0326Z" fill="white"/>
<path d="M57.4659 46.672C57.8038 47.3445 58.6229 47.6156 59.2952 47.2776C59.9675 46.9396 60.2386 46.1206 59.9007 45.4482C59.5627 44.7758 58.7437 44.5047 58.0713 44.8427C57.399 45.1807 57.1279 45.9997 57.4659 46.672Z" fill="white"/>
<path d="M71.6227 74.7996C71.9866 74.1826 71.7814 73.3873 71.1644 73.0233C70.5473 72.6594 69.752 72.8647 69.3881 73.4817C69.0241 74.0988 69.2293 74.8941 69.8465 75.258C70.4635 75.6219 71.2587 75.4167 71.6227 74.7996Z" fill="white"/>
<path d="M72.1523 61.829C71.3895 62.0168 70.9233 62.7876 71.1112 63.5503C71.299 64.3132 72.0698 64.7794 72.8326 64.5915C73.5955 64.4036 74.0616 63.6329 73.8737 62.87C73.6858 62.1072 72.9151 61.641 72.1523 61.829Z" fill="white"/>
<path d="M83.2087 68.2809C83.8376 68.2987 84.3618 67.8034 84.3797 67.1746C84.3975 66.5456 83.9022 66.0214 83.2733 66.0036C82.6445 65.9858 82.1202 66.4811 82.1024 67.11C82.0845 67.7388 82.5799 68.2631 83.2087 68.2809Z" fill="white"/>
<path d="M35.8485 74.3743C35.4175 74.6023 35.2528 75.1365 35.4807 75.5676C35.7087 75.9986 36.243 76.1634 36.6741 75.9354C37.1051 75.7075 37.2698 75.1732 37.0418 74.7421C36.8138 74.311 36.2796 74.1464 35.8485 74.3743Z" fill="white"/>
<path d="M28.4227 56.4373C27.9217 56.3968 27.4826 56.7701 27.442 57.2711C27.4014 57.7722 27.7747 58.2113 28.2758 58.2519C28.7768 58.2924 29.2159 57.9191 29.2565 57.4181C29.2971 56.917 28.9238 56.4779 28.4227 56.4373Z" fill="white"/>
<path d="M41.2745 25.1825C40.8901 24.743 40.222 24.6983 39.7825 25.0828C39.3429 25.4673 39.2983 26.1352 39.6828 26.5748C40.0673 27.0144 40.7353 27.059 41.1748 26.6745C41.6143 26.29 41.6589 25.6221 41.2745 25.1825Z" fill="white"/>
<path d="M44.3289 21.9849C44.0013 21.5197 43.3586 21.4084 42.8935 21.736C42.4284 22.0637 42.3169 22.7062 42.6446 23.1714C42.9722 23.6364 43.6149 23.7479 44.08 23.4202C44.5451 23.0926 44.6565 22.45 44.3289 21.9849Z" fill="white"/>
<path d="M51.6056 15.915C51.4221 15.4893 50.9282 15.2929 50.5025 15.4763C50.0768 15.6598 49.8804 16.1536 50.0639 16.5793C50.2474 17.0051 50.7412 17.2015 51.1669 17.018C51.5927 16.8345 51.789 16.3406 51.6056 15.915Z" fill="white"/>
<path d="M57.3778 10.3974C57.289 9.96387 56.8655 9.68443 56.4321 9.77323C55.9985 9.86203 55.7192 10.2854 55.808 10.7189C55.8968 11.1524 56.3201 11.4319 56.7537 11.3431C57.1871 11.2543 57.4666 10.8308 57.3778 10.3974Z" fill="white"/>
<path d="M60.4171 8.39279C60.3558 7.9789 59.9705 7.69306 59.5566 7.75437C59.1427 7.81567 58.8569 8.20089 58.9182 8.61478C58.9795 9.02867 59.3647 9.31451 59.7786 9.25322C60.1925 9.19191 60.4783 8.80668 60.4171 8.39279Z" fill="white"/>
<path d="M60.1777 5.34395C60.1491 4.95067 59.807 4.65509 59.4137 4.68374C59.0204 4.7124 58.7249 5.05446 58.7535 5.44774C58.7822 5.84102 59.1242 6.13661 59.5176 6.10795C59.9108 6.07928 60.2064 5.73723 60.1777 5.34395Z" fill="white"/>
<path d="M60.5313 4.47612C60.5069 4.07953 60.1656 3.7778 59.7691 3.80216C59.3724 3.82653 59.0708 4.16779 59.0951 4.56437C59.1195 4.96095 59.4607 5.2627 59.8573 5.23833C60.2539 5.21397 60.5556 4.87271 60.5313 4.47612Z" fill="white"/>
<path d="M63.1158 1.97602C63.1025 1.60602 62.7917 1.31687 62.4218 1.33022C62.0517 1.34355 61.7626 1.6543 61.776 2.02431C61.7893 2.39431 62.1001 2.68346 62.47 2.67013C62.84 2.65678 63.1291 2.34603 63.1158 1.97602Z" fill="white"/>
<path d="M68.8458 118.892C68.8662 118.561 68.6149 118.277 68.2845 118.257C67.9539 118.236 67.6695 118.488 67.6491 118.819C67.6286 119.149 67.8801 119.433 68.2105 119.453C68.5409 119.474 68.8254 119.222 68.8458 118.892Z" fill="white"/>
<path d="M66.2809 115.815C66.2983 115.485 66.0444 115.202 65.7137 115.185C65.383 115.168 65.1008 115.421 65.0835 115.752C65.0661 116.084 65.3201 116.365 65.6508 116.383C65.9814 116.4 66.2635 116.146 66.2809 115.815Z" fill="white"/>
<path d="M71.5355 113.523C71.5481 113.186 71.2853 112.903 70.9485 112.889C70.6115 112.877 70.3282 113.14 70.3155 113.477C70.3027 113.813 70.5657 114.097 70.9025 114.11C71.2394 114.122 71.5228 113.859 71.5355 113.523Z" fill="white"/>
<path d="M69.1241 111.593C69.1208 111.262 68.8497 110.997 68.5186 111C68.1875 111.003 67.9218 111.274 67.9251 111.605C67.9284 111.936 68.1994 112.202 68.5305 112.199C68.8616 112.196 69.1274 111.924 69.1241 111.593Z" fill="white"/>
<path d="M76.299 107.145C76.265 106.791 75.9508 106.533 75.5973 106.567C75.2437 106.601 74.9846 106.915 75.0186 107.268C75.0527 107.622 75.3669 107.881 75.7204 107.847C76.074 107.813 76.3331 107.499 76.299 107.145Z" fill="white"/>
<path d="M84.4416 97.8119C84.3032 97.4782 83.9205 97.3199 83.5869 97.4582C83.2532 97.5967 83.0949 97.9794 83.2333 98.313C83.3717 98.6467 83.7543 98.805 84.0879 98.6665C84.4217 98.5282 84.5799 98.1455 84.4416 97.8119Z" fill="white"/>
<path d="M94.1539 84.8506C93.8878 84.5761 93.4496 84.5692 93.175 84.8353C92.9006 85.1014 92.8937 85.5396 93.1598 85.8141C93.4258 86.0886 93.864 86.0954 94.1385 85.8294C94.4131 85.5634 94.4199 85.1251 94.1539 84.8506Z" fill="white"/>
<path d="M99.7471 64.249C99.3146 64.1422 98.8773 64.4062 98.7705 64.8386C98.6637 65.2712 98.9277 65.7084 99.3602 65.8152C99.7927 65.922 100.23 65.658 100.337 65.2256C100.444 64.793 100.18 64.3558 99.7471 64.249Z" fill="white"/>
<path d="M65.656 38.122C65.5406 38.7404 65.9483 39.3354 66.5667 39.4508C67.1851 39.5664 67.7801 39.1587 67.8955 38.5403C68.0111 37.9218 67.6034 37.3268 66.985 37.2113C66.3665 37.0959 65.7715 37.5036 65.656 38.122Z" fill="white"/>
<path d="M59.5522 40.7343C59.4824 41.4141 59.9769 42.0217 60.6567 42.0914C61.3364 42.1611 61.9439 41.6666 62.0136 40.9869C62.0835 40.3073 61.589 39.6996 60.9092 39.6299C60.2295 39.5602 59.6219 40.0546 59.5522 40.7343Z" fill="white"/>
<path d="M43.9828 65.3206C44.5137 65.9241 45.4332 65.9829 46.0367 65.4521C46.6402 64.9212 46.699 64.0017 46.1681 63.3983C45.6373 62.7948 44.7178 62.7359 44.1143 63.2668C43.5109 63.7977 43.452 64.7172 43.9828 65.3206Z" fill="white"/>
<path d="M73.6637 76.6451C74.2939 76.4727 74.6649 75.8223 74.4925 75.1922C74.3203 74.5622 73.6698 74.1911 73.0396 74.3634C72.4096 74.5358 72.0386 75.1862 72.2109 75.8163C72.3832 76.4463 73.0337 76.8174 73.6637 76.6451Z" fill="white"/>
<path d="M37.4523 69C37.155 69.5408 37.3523 70.2202 37.8931 70.5174C38.4337 70.8147 39.1132 70.6174 39.4104 70.0766C39.7077 69.5358 39.5104 68.8565 38.9697 68.5593C38.4289 68.2619 37.7495 68.4592 37.4523 69Z" fill="white"/>
<path d="M34.0765 63.5479C33.6432 63.9072 33.5833 64.5498 33.9426 64.9831C34.3019 65.4164 34.9444 65.4763 35.3777 65.1169C35.811 64.7577 35.871 64.1151 35.5117 63.6818C35.1523 63.2485 34.5098 63.1885 34.0765 63.5479Z" fill="white"/>
<path d="M35.306 37.5465C34.6888 37.3419 34.0227 37.6765 33.8183 38.2937C33.6137 38.9109 33.9483 39.577 34.5654 39.7815C35.1827 39.986 35.8488 39.6515 36.0533 39.0343C36.2578 38.4171 35.9232 37.751 35.306 37.5465Z" fill="white"/>
<path d="M44.4188 25.3838C43.9745 24.9909 43.296 25.0324 42.903 25.4765C42.5102 25.9208 42.5517 26.5993 42.9959 26.9921C43.44 27.3851 44.1185 27.3435 44.5115 26.8994C44.9044 26.4553 44.8629 25.7768 44.4188 25.3838Z" fill="white"/>
<path d="M54.0691 17.0483C53.8423 16.644 53.3307 16.5001 52.9264 16.7269C52.5221 16.9536 52.3782 17.4652 52.605 17.8695C52.8317 18.2738 53.3434 18.4177 53.7476 18.191C54.1519 17.9642 54.2958 17.4526 54.0691 17.0483Z" fill="white"/>
<path d="M60.9016 13.9397C60.7294 13.5256 60.2539 13.3296 59.8398 13.502C59.4258 13.6743 59.2298 14.1496 59.4022 14.5637C59.5744 14.9778 60.0498 15.1738 60.4639 15.0015C60.8779 14.8292 61.074 14.3538 60.9016 13.9397Z" fill="white"/>
<path d="M61.9368 9.70443C61.8557 9.30315 61.4647 9.04353 61.0634 9.12455C60.6622 9.20556 60.4025 9.59654 60.4836 9.99782C60.5646 10.3991 60.9555 10.6587 61.3568 10.5777C61.7581 10.4967 62.0177 10.1057 61.9368 9.70443Z" fill="white"/>
<path d="M66.6319 9.2286C66.5531 8.82383 66.1609 8.55966 65.7561 8.63857C65.3514 8.71748 65.0872 9.10957 65.1662 9.51434C65.2451 9.91911 65.6371 10.1833 66.0419 10.1044C66.4467 10.0255 66.7108 9.63337 66.6319 9.2286Z" fill="white"/>
<path d="M67.5471 5.75124C67.5056 5.33489 67.1345 5.03102 66.7181 5.07252C66.3018 5.11402 65.9979 5.48518 66.0394 5.90152C66.0809 6.31787 66.452 6.62174 66.8684 6.58024C67.2847 6.53873 67.5886 6.16758 67.5471 5.75124Z" fill="white"/>
<path d="M65.9089 3.52551C65.8847 3.13495 65.5485 2.83798 65.1579 2.86222C64.7673 2.88646 64.4703 3.22274 64.4945 3.6133C64.5189 4.00386 64.8551 4.30083 65.2456 4.27659C65.6362 4.25235 65.9332 3.91608 65.9089 3.52551Z" fill="white"/>
<path d="M74.6434 116.133C74.6627 115.799 74.4079 115.513 74.0744 115.493C73.7408 115.475 73.4548 115.729 73.4355 116.063C73.4162 116.397 73.6709 116.683 74.0045 116.701C74.3381 116.721 74.6241 116.467 74.6434 116.133Z" fill="white"/>
<path d="M72.6265 115.159C72.6444 114.828 72.391 114.545 72.0603 114.528C71.7298 114.509 71.4471 114.764 71.4291 115.094C71.4112 115.425 71.6646 115.707 71.9953 115.725C72.3258 115.743 72.6085 115.489 72.6265 115.159Z" fill="white"/>
<path d="M73.5433 111.771C73.5485 111.428 73.2746 111.145 72.9315 111.14C72.5884 111.135 72.306 111.409 72.3007 111.752C72.2956 112.095 72.5694 112.378 72.9126 112.382C73.2557 112.388 73.538 112.114 73.5433 111.771Z" fill="white"/>
<path d="M80.8615 107.908C80.854 107.559 80.5651 107.282 80.216 107.289C79.8669 107.297 79.5899 107.586 79.5973 107.935C79.6047 108.284 79.8937 108.561 80.2428 108.554C80.592 108.546 80.869 108.257 80.8615 107.908Z" fill="white"/>
<path d="M81.8934 106.429C81.8759 106.08 81.5791 105.811 81.2304 105.829C80.8817 105.846 80.6131 106.143 80.6304 106.492C80.6478 106.84 80.9446 107.109 81.2934 107.092C81.6421 107.074 81.9107 106.777 81.8934 106.429Z" fill="white"/>
<path d="M89.2542 96.9827C89.1575 96.6315 88.7944 96.4253 88.4432 96.522C88.0921 96.6188 87.8859 96.9818 87.9826 97.333C88.0793 97.6841 88.4424 97.8903 88.7935 97.7937C89.1447 97.6969 89.3509 97.3338 89.2542 96.9827Z" fill="white"/>
<path d="M98.5195 84.335C98.328 83.9766 97.8822 83.8415 97.5239 84.033C97.1655 84.2246 97.0302 84.6703 97.2218 85.0287C97.4134 85.3872 97.8592 85.5223 98.2176 85.3308C98.5759 85.1392 98.7112 84.6934 98.5195 84.335Z" fill="white"/>
<path d="M102.43 63.8141C102.067 63.5835 101.585 63.6911 101.354 64.0545C101.124 64.4178 101.231 64.8995 101.595 65.1302C101.958 65.3609 102.44 65.2533 102.67 64.8899C102.901 64.5265 102.794 64.0449 102.43 63.8141Z" fill="white"/>
<path d="M87.0188 34.6692C86.4519 34.7443 86.0532 35.2649 86.1282 35.8318C86.2033 36.3988 86.7239 36.7975 87.2908 36.7224C87.8577 36.6473 88.2565 36.1268 88.1814 35.5599C88.1063 34.9929 87.5858 34.5942 87.0188 34.6692Z" fill="white"/>
<path d="M51.9775 42.8965C51.7801 43.604 52.1936 44.3375 52.901 44.5349C53.6084 44.7324 54.3419 44.3189 54.5394 43.6115C54.7369 42.904 54.3234 42.1705 53.6159 41.9731C52.9085 41.7756 52.175 42.1892 51.9775 42.8965Z" fill="white"/>
<path d="M54.6944 37.723C54.2503 38.2344 54.3048 39.0089 54.8161 39.4531C55.3275 39.8972 56.1021 39.8426 56.5462 39.3313C56.9903 38.8199 56.9358 38.0453 56.4244 37.6012C55.913 37.1571 55.1385 37.2117 54.6944 37.723Z" fill="white"/>
<path d="M39.1381 68.1163C39.0233 68.7745 39.4639 69.4013 40.1223 69.516C40.7805 69.6308 41.4072 69.1902 41.522 68.5318C41.6368 67.8736 41.1962 67.2468 40.5378 67.1321C39.8795 67.0173 39.2528 67.4579 39.1381 68.1163Z" fill="white"/>
<path d="M36.4466 45.4297C35.7918 45.6248 35.419 46.3138 35.6141 46.9687C35.809 47.6235 36.498 47.9963 37.1529 47.8013C37.8078 47.6062 38.1805 46.9172 37.9855 46.2623C37.7905 45.6074 37.1015 45.2347 36.4466 45.4297Z" fill="white"/>
<path d="M40.7004 38.4144C40.04 38.4636 39.5445 39.0388 39.5937 39.6993C39.6429 40.3597 40.2181 40.8551 40.8786 40.806C41.5389 40.7568 42.0344 40.1815 41.9852 39.5211C41.936 38.8607 41.3608 38.3652 40.7004 38.4144Z" fill="white"/>
<path d="M42.3833 31.4803C41.7788 31.2491 41.1014 31.5516 40.8701 32.1559C40.6387 32.7604 40.9412 33.4379 41.5457 33.6691C42.1502 33.9005 42.8276 33.598 43.0589 32.9935C43.2902 32.3891 42.9878 31.7116 42.3833 31.4803Z" fill="white"/>
<path d="M57.9964 19.6743C57.6605 19.2963 57.0817 19.2621 56.7036 19.598C56.3256 19.9337 56.2914 20.5126 56.6272 20.8906C56.9631 21.2687 57.5418 21.3029 57.9199 20.967C58.298 20.6312 58.3321 20.0524 57.9964 19.6743Z" fill="white"/>
<path d="M58.9251 16.178C58.6923 15.7633 58.1672 15.6159 57.7526 15.8488C57.3379 16.0817 57.1906 16.6067 57.4235 17.0213C57.6563 17.436 58.1812 17.5834 58.596 17.3506C59.0106 17.1176 59.158 16.5927 58.9251 16.178Z" fill="white"/>
<path d="M63.1603 13.1467C63.0018 12.7271 62.5331 12.5155 62.1136 12.674C61.694 12.8325 61.4824 13.3011 61.6409 13.7207C61.7994 14.1403 62.268 14.3519 62.6876 14.1934C63.1072 14.0349 63.3188 13.5662 63.1603 13.1467Z" fill="white"/>
<path d="M71.727 9.64629C71.6423 9.23654 71.2415 8.97302 70.8318 9.0577C70.422 9.14239 70.1585 9.5432 70.2431 9.95294C70.3279 10.3627 70.7287 10.6262 71.1384 10.5415C71.5482 10.4569 71.8116 10.056 71.727 9.64629Z" fill="white"/>
<path d="M70.7631 9.16978C70.6854 8.76477 70.2941 8.49939 69.8891 8.57703C69.4841 8.65468 69.2187 9.04594 69.2963 9.45096C69.374 9.85597 69.7652 10.1214 70.1703 10.0437C70.5753 9.96606 70.8406 9.5748 70.7631 9.16978Z" fill="white"/>
<path d="M74.3295 6.3968C74.278 5.96338 73.8849 5.65372 73.4515 5.70517C73.0181 5.75663 72.7084 6.14969 72.7599 6.58312C72.8114 7.01655 73.2044 7.3262 73.6378 7.27475C74.0713 7.22329 74.3808 6.83023 74.3295 6.3968Z" fill="white"/>
<path d="M71.2176 5.19106C71.1781 4.78057 70.8133 4.47984 70.4028 4.51936C69.9923 4.55888 69.6917 4.92368 69.7311 5.33418C69.7706 5.74467 70.1354 6.0454 70.5459 6.00588C70.9565 5.96635 71.2572 5.60155 71.2176 5.19106Z" fill="white"/>
<path d="M76.1689 117.113C76.1892 116.777 75.9329 116.488 75.5964 116.468C75.2598 116.447 74.9705 116.703 74.9502 117.04C74.9299 117.376 75.1862 117.665 75.5227 117.686C75.8593 117.707 76.1486 117.451 76.1689 117.113Z" fill="white"/>
<path d="M78.8954 114.917C78.9144 114.577 78.6546 114.287 78.315 114.267C77.9754 114.249 77.6846 114.508 77.6655 114.848C77.6464 115.188 77.9063 115.478 78.246 115.498C78.5856 115.516 78.8763 115.257 78.8954 114.917Z" fill="white"/>
<path d="M79.3503 111.892C79.3641 111.556 79.1022 111.272 78.7654 111.257C78.4286 111.244 78.1443 111.506 78.1304 111.843C78.1166 112.179 78.3785 112.464 78.7152 112.478C79.0521 112.491 79.3364 112.229 79.3503 111.892Z" fill="white"/>
<path d="M82.2969 108.013C82.2949 107.667 82.0127 107.388 81.6666 107.39C81.3204 107.392 81.0414 107.674 81.0433 108.02C81.0453 108.367 81.3275 108.645 81.6737 108.644C82.0198 108.642 82.2989 108.359 82.2969 108.013Z" fill="white"/>
<path d="M84.872 105.422C84.8573 105.061 84.5527 104.78 84.1919 104.795C83.8309 104.81 83.5503 105.114 83.5651 105.475C83.5799 105.836 83.8844 106.117 84.2453 106.102C84.6063 106.087 84.8869 105.782 84.872 105.422Z" fill="white"/>
<path d="M93.4659 96.4032C93.4097 96.0617 93.0872 95.8304 92.7457 95.8866C92.4041 95.9428 92.1727 96.2652 92.229 96.6068C92.2852 96.9484 92.6077 97.1797 92.9492 97.1236C93.2908 97.0673 93.5221 96.7448 93.4659 96.4032Z" fill="white"/>
<path d="M96.0024 92.2031C95.9055 91.8209 95.5171 91.5895 95.1349 91.6864C94.7526 91.7831 94.5212 92.1715 94.6181 92.5537C94.7149 92.936 95.1034 93.1674 95.4856 93.0706C95.8679 92.9737 96.0992 92.5854 96.0024 92.2031Z" fill="white"/>
<path d="M102.309 77.3547C102.091 77.0014 101.627 76.8921 101.274 77.1105C100.921 77.3289 100.811 77.7924 101.03 78.1457C101.248 78.4991 101.711 78.6084 102.065 78.39C102.418 78.1716 102.528 77.7081 102.309 77.3547Z" fill="white"/>
<path d="M102.705 50.7865C102.337 50.5403 101.839 50.6387 101.593 51.0063C101.347 51.3738 101.445 51.8715 101.813 52.1178C102.18 52.364 102.678 52.2656 102.924 51.898C103.171 51.5305 103.072 51.0328 102.705 50.7865Z" fill="white"/>
<path d="M79.8903 31.8845C79.3497 32.041 79.0382 32.6062 79.1948 33.1469C79.3513 33.6875 79.9165 33.999 80.4573 33.8424C80.9979 33.6859 81.3094 33.1207 81.1528 32.58C80.9963 32.0393 80.4311 31.7279 79.8903 31.8845Z" fill="white"/>
<path d="M55.2196 34.288C54.6599 34.5552 54.4229 35.2253 54.6899 35.785C54.9571 36.3445 55.6273 36.5817 56.1869 36.3146C56.7465 36.0474 56.9836 35.3773 56.7165 34.8177C56.4494 34.258 55.7792 34.021 55.2196 34.288Z" fill="white"/>
<path d="M55.4005 30.7915C54.8201 30.8168 54.3701 31.3078 54.3954 31.8883C54.4207 32.4686 54.9118 32.9186 55.4921 32.8933C56.0726 32.868 56.5226 32.377 56.4973 31.7966C56.472 31.2162 55.981 30.7662 55.4005 30.7915Z" fill="white"/>
<path d="M58.7444 28.535C58.1454 28.4741 57.6105 28.9103 57.5496 29.5092C57.4887 30.1081 57.9249 30.643 58.5238 30.704C59.1227 30.7649 59.6577 30.3287 59.7186 29.7297C59.7794 29.1308 59.3433 28.5959 58.7444 28.535Z" fill="white"/>
<path d="M47.7401 31.509C47.11 31.4075 46.517 31.8359 46.4155 32.466C46.314 33.096 46.7425 33.689 47.3725 33.7905C48.0025 33.892 48.5955 33.4635 48.6971 32.8335C48.7985 32.2035 48.3701 31.6105 47.7401 31.509Z" fill="white"/>
<path d="M63.3296 19.9913C63.0212 19.6698 62.5106 19.6593 62.1892 19.9678C61.8677 20.2762 61.8572 20.7869 62.1656 21.1082C62.4741 21.4297 62.9848 21.4402 63.3062 21.1318C63.6277 20.8233 63.6381 20.3126 63.3296 19.9913Z" fill="white"/>
<path d="M65.3891 17.9266C65.1308 17.5748 64.6361 17.4992 64.2844 17.7576C63.9326 18.016 63.8569 18.5107 64.1154 18.8624C64.3738 19.2141 64.8684 19.2898 65.2201 19.0314C65.572 18.7729 65.6476 18.2783 65.3891 17.9266Z" fill="white"/>
<path d="M73.6304 14.1805C73.4653 13.77 72.9987 13.5711 72.5882 13.7362C72.1776 13.9013 71.9787 14.3679 72.1438 14.7784C72.3089 15.1889 72.7755 15.3879 73.186 15.2229C73.5966 15.0577 73.7955 14.5911 73.6304 14.1805Z" fill="white"/>
<path d="M72.2898 12.6548C72.1497 12.2351 71.6959 12.0084 71.2761 12.1485C70.8564 12.2886 70.6297 12.7424 70.7698 13.162C70.9099 13.5818 71.3637 13.8085 71.7834 13.6684C72.2032 13.5284 72.4299 13.0746 72.2898 12.6548Z" fill="white"/>
<path d="M78.753 11.431C78.6559 11.0147 78.2397 10.7561 77.8234 10.8533C77.4071 10.9505 77.1485 11.3666 77.2457 11.7829C77.3429 12.1991 77.759 12.4578 78.1753 12.3607C78.5915 12.2635 78.8502 11.8473 78.753 11.431Z" fill="white"/>
<path d="M74.4601 9.09357C74.3856 8.68186 73.9914 8.40853 73.5797 8.48308C73.1679 8.55763 72.8946 8.95183 72.9692 9.36354C73.0438 9.77525 73.4379 10.0486 73.8496 9.97403C74.2613 9.89948 74.5347 9.50528 74.4601 9.09357Z" fill="white"/>
<path d="M78.7679 7.4743C78.7066 7.02089 78.2894 6.703 77.8359 6.76427C77.3826 6.82554 77.0647 7.24278 77.126 7.69621C77.1872 8.14962 77.6045 8.46751 78.0578 8.40623C78.5113 8.34496 78.8292 7.92772 78.7679 7.4743Z" fill="white"/>
<path d="M78.6674 4.1713C78.6323 3.7453 78.2585 3.42839 77.8325 3.46347C77.4065 3.49855 77.0896 3.87232 77.1247 4.29832C77.1597 4.72432 77.5336 5.04122 77.9596 5.00614C78.3855 4.97107 78.7024 4.59729 78.6674 4.1713Z" fill="white"/>
<path d="M84.1772 112.836C84.1942 112.505 83.94 112.223 83.6094 112.207C83.2787 112.189 82.9968 112.443 82.9797 112.774C82.9626 113.104 83.2168 113.387 83.5474 113.403C83.8782 113.421 84.1601 113.167 84.1772 112.836Z" fill="white"/>
<path d="M88.0082 108.425C88.0201 108.076 87.7468 107.784 87.3978 107.772C87.0489 107.76 86.7563 108.033 86.7444 108.382C86.7325 108.731 87.0058 109.023 87.3548 109.035C87.7037 109.047 87.9963 108.774 88.0082 108.425Z" fill="white"/>
<path d="M88.1326 107.258C88.1407 106.9 87.8569 106.603 87.4988 106.595C87.1407 106.587 86.8438 106.871 86.8359 107.229C86.8278 107.587 87.1115 107.884 87.4697 107.892C87.8278 107.9 88.1247 107.616 88.1326 107.258Z" fill="white"/>
<path d="M88.4299 104.106C88.4196 103.754 88.126 103.477 87.7739 103.487C87.4219 103.497 87.1448 103.791 87.1551 104.143C87.1654 104.495 87.4591 104.772 87.8111 104.762C88.1632 104.752 88.4403 104.458 88.4299 104.106Z" fill="white"/>
<path d="M97.5004 93.4506C97.4407 93.0669 97.0812 92.8042 96.6976 92.8639C96.3139 92.9235 96.0512 93.283 96.1109 93.6667C96.1705 94.0503 96.53 94.313 96.9137 94.2534C97.2973 94.1937 97.56 93.8342 97.5004 93.4506Z" fill="white"/>
<path d="M101.684 85.6549C101.572 85.2519 101.154 85.016 100.751 85.1282C100.348 85.2404 100.112 85.6582 100.225 86.0613C100.337 86.4643 100.755 86.7002 101.158 86.5879C101.561 86.4757 101.797 86.058 101.684 85.6549Z" fill="white"/>
<path d="M104.811 76.4754C104.649 76.1093 104.221 75.9437 103.855 76.1056C103.489 76.2676 103.323 76.6957 103.485 77.0618C103.647 77.4279 104.075 77.5935 104.441 77.4316C104.807 77.2696 104.973 76.8415 104.811 76.4754Z" fill="white"/>
<path d="M106.965 70.8495C106.796 70.4801 106.359 70.3179 105.99 70.4871C105.62 70.6564 105.458 71.0931 105.628 71.4626C105.797 71.832 106.234 71.9943 106.603 71.825C106.972 71.6557 107.135 71.219 106.965 70.8495Z" fill="white"/>
<path d="M103.255 45.6769C102.921 45.3337 102.373 45.3258 102.03 45.6593C101.686 45.9928 101.678 46.5415 102.012 46.8847C102.345 47.228 102.894 47.236 103.237 46.9024C103.581 46.5689 103.589 46.0202 103.255 45.6769Z" fill="white"/>
<path d="M82.7649 28.8431C82.2706 28.6889 81.7449 28.9645 81.5908 29.4588C81.4365 29.953 81.7122 30.4787 82.2064 30.6329C82.7007 30.7871 83.2263 30.5115 83.3805 30.0172C83.5348 29.523 83.2591 28.9973 82.7649 28.8431Z" fill="white"/>
<path d="M90.5482 28.9016C90.1575 28.5262 89.5365 28.5385 89.1611 28.9292C88.7857 29.32 88.7981 29.941 89.1887 30.3164C89.5794 30.6918 90.2004 30.6794 90.5759 30.2888C90.9513 29.898 90.939 29.277 90.5482 28.9016Z" fill="white"/>
<path d="M84.203 24.0781C83.8646 23.6863 83.2727 23.643 82.8808 23.9812C82.489 24.3196 82.4456 24.9117 82.784 25.3035C83.1224 25.6954 83.7144 25.7387 84.1063 25.4003C84.4981 25.0619 84.5414 24.47 84.203 24.0781Z" fill="white"/>
<path d="M65.5195 23.7145C65.0847 23.4622 64.5277 23.6102 64.2755 24.0451C64.0233 24.4799 64.1712 25.0369 64.606 25.2891C65.0409 25.5414 65.5979 25.3933 65.8501 24.9585C66.1023 24.5236 65.9543 23.9667 65.5195 23.7145Z" fill="white"/>
<path d="M72.4926 19.8538C72.2011 19.505 71.6821 19.4587 71.3333 19.7502C70.9845 20.0416 70.9382 20.5607 71.2297 20.9095C71.5211 21.2581 72.0401 21.3046 72.3888 21.0131C72.7376 20.7216 72.7841 20.2026 72.4926 19.8538Z" fill="white"/>
<path d="M78.5336 16.7279C78.343 16.3218 77.8594 16.1472 77.4533 16.3378C77.0473 16.5284 76.8727 17.012 77.0632 17.418C77.2538 17.824 77.7374 17.9987 78.1435 17.8081C78.5495 17.6175 78.7241 17.1338 78.5336 16.7279Z" fill="white"/>
<path d="M80.8657 15.7595C80.7014 15.3261 80.2167 15.1079 79.7833 15.2723C79.3499 15.4366 79.1317 15.9213 79.2961 16.3547C79.4604 16.7881 79.945 17.0063 80.3785 16.8419C80.8119 16.6776 81.0301 16.1929 80.8657 15.7595Z" fill="white"/>
<path d="M81.412 13.877C81.2796 13.4265 80.807 13.1686 80.3565 13.3011C79.9059 13.4336 79.6482 13.9062 79.7806 14.3566C79.913 14.8071 80.3856 15.065 80.8362 14.9326C81.2867 14.8 81.5445 14.3275 81.412 13.877Z" fill="white"/>
<path d="M85.6969 13.3897C85.5806 12.8759 85.0699 12.5536 84.556 12.6699C84.0423 12.7862 83.7201 13.297 83.8364 13.8107C83.9525 14.3245 84.4633 14.6468 84.9771 14.5305C85.4909 14.4142 85.8132 13.9034 85.6969 13.3897Z" fill="white"/>
<path d="M80.9784 9.19239C80.9035 8.7288 80.4672 8.41361 80.0035 8.4884C79.54 8.56317 79.2247 8.99961 79.2996 9.46319C79.3743 9.92678 79.8108 10.242 80.2743 10.1672C80.7379 10.0924 81.0531 9.65597 80.9784 9.19239Z" fill="white"/>
<path d="M83.6626 8.96946C83.5874 8.46633 83.1187 8.1194 82.6156 8.19456C82.1124 8.26972 81.7655 8.73852 81.8407 9.24165C81.9158 9.74478 82.3846 10.0917 82.8877 10.0165C83.3909 9.94138 83.7379 9.47258 83.6626 8.96946Z" fill="white"/>
<path d="M80.4899 5.85527C80.4427 5.41227 80.0454 5.09137 79.6024 5.13851C79.1594 5.18566 78.8384 5.583 78.8856 6.02599C78.9328 6.46899 79.3301 6.78989 79.7731 6.74275C80.216 6.6956 80.537 6.29827 80.4899 5.85527Z" fill="white"/>
<path d="M87.0651 112.462C87.083 112.113 86.8147 111.816 86.4661 111.797C86.1173 111.78 85.8201 112.048 85.8022 112.397C85.7843 112.745 86.0526 113.043 86.4013 113.061C86.75 113.078 87.0472 112.811 87.0651 112.462Z" fill="white"/>
<path d="M89.6526 108.539C89.666 108.181 89.3868 107.88 89.0288 107.867C88.6709 107.853 88.3698 108.132 88.3563 108.49C88.3429 108.848 88.6222 109.15 88.9801 109.163C89.338 109.176 89.6391 108.897 89.6526 108.539Z" fill="white"/>
<path d="M93.658 102.91C93.6578 102.549 93.3647 102.257 93.0035 102.257C92.6423 102.257 92.3496 102.55 92.35 102.911C92.3502 103.273 92.6432 103.565 93.0044 103.565C93.3656 103.565 93.6583 103.272 93.658 102.91Z" fill="white"/>
<path d="M93.8182 100.818C93.8071 100.481 93.525 100.217 93.188 100.228C92.8511 100.239 92.5868 100.521 92.5979 100.858C92.6089 101.195 92.891 101.459 93.228 101.448C93.565 101.437 93.8292 101.155 93.8182 100.818Z" fill="white"/>
<path d="M99.912 92.8657C99.8703 92.4888 99.5307 92.2171 99.1537 92.259C98.7767 92.3009 98.5051 92.6403 98.547 93.0173C98.5888 93.3943 98.9284 93.6659 99.3053 93.624C99.6823 93.5822 99.9539 93.2427 99.912 92.8657Z" fill="white"/>
<path d="M103.492 83.551C103.383 83.147 102.968 82.9076 102.563 83.0164C102.159 83.1252 101.92 83.5408 102.029 83.9449C102.138 84.3488 102.553 84.5882 102.957 84.4794C103.361 84.3707 103.601 83.955 103.492 83.551Z" fill="white"/>
<path d="M105.435 78.6058C105.311 78.2283 104.905 78.0228 104.527 78.1469C104.15 78.2709 103.944 78.6774 104.068 79.0549C104.192 79.4324 104.599 79.6379 104.976 79.5139C105.354 79.3898 105.559 78.9834 105.435 78.6058Z" fill="white"/>
<path d="M108.086 72.883C107.951 72.474 107.511 72.2515 107.102 72.386C106.693 72.5206 106.47 72.9611 106.605 73.37C106.739 73.7789 107.18 74.0014 107.589 73.8668C107.998 73.7323 108.22 73.2918 108.086 72.883Z" fill="white"/>
<path d="M108.234 57.5496C108.015 57.141 107.506 56.9872 107.097 57.2062C106.689 57.4251 106.535 57.9338 106.754 58.3425C106.973 58.751 107.482 58.9048 107.89 58.6859C108.299 58.4669 108.453 57.9582 108.234 57.5496Z" fill="white"/>
<path d="M108.55 50.2294C108.387 49.818 107.921 49.6168 107.51 49.7799C107.098 49.9431 106.897 50.4087 107.06 50.8201C107.223 51.2314 107.689 51.4326 108.1 51.2694C108.512 51.1063 108.713 50.6406 108.55 50.2294Z" fill="white"/>
<path d="M103.663 38.1887C103.47 37.7637 102.969 37.5754 102.544 37.7679C102.119 37.9605 101.931 38.4612 102.124 38.8861C102.316 39.3111 102.817 39.4994 103.242 39.3069C103.667 39.1143 103.855 38.6136 103.663 38.1887Z" fill="white"/>
<path d="M87.8139 25.664C87.4548 25.2266 86.8092 25.1632 86.3718 25.5224C85.9345 25.8815 85.8711 26.5271 86.2302 26.9644C86.5894 27.4018 87.2351 27.4652 87.6723 27.106C88.1097 26.7469 88.1732 26.1012 87.8139 25.664Z" fill="white"/>
<path d="M86.4158 23.7772C86.1039 23.3305 85.489 23.2211 85.0422 23.533C84.5954 23.8447 84.4861 24.4598 84.7979 24.9065C85.1098 25.3533 85.7247 25.4627 86.1714 25.1508C86.6183 24.839 86.7276 24.2241 86.4158 23.7772Z" fill="white"/>
<path d="M92.199 22.6901C92.0154 22.1964 91.4662 21.9452 90.9725 22.1289C90.4788 22.3125 90.2275 22.8616 90.4112 23.3554C90.5949 23.8491 91.144 24.1004 91.6377 23.9167C92.1315 23.7329 92.3827 23.1839 92.199 22.6901Z" fill="white"/>
<path d="M88.6267 20.0498C88.4448 19.5715 87.9095 19.3314 87.4312 19.5134C86.953 19.6954 86.7128 20.2307 86.8948 20.7089C87.0768 21.1872 87.6121 21.4273 88.0903 21.2453C88.5686 21.0634 88.8087 20.5281 88.6267 20.0498Z" fill="white"/>
<path d="M91.9883 19.8889C91.8329 19.3541 91.2735 19.0465 90.7388 19.202C90.204 19.3573 89.8964 19.9167 90.0518 20.4515C90.2072 20.9862 90.7666 21.2939 91.3013 21.1384C91.8361 20.9831 92.1437 20.4237 91.9883 19.8889Z" fill="white"/>
<path d="M89.1819 15.4902C89.0597 14.9654 88.5352 14.639 88.0103 14.7613C87.4856 14.8835 87.1593 15.408 87.2815 15.9327C87.4038 16.4576 87.9282 16.7839 88.453 16.6617C88.9777 16.5394 89.304 16.0149 89.1819 15.4902Z" fill="white"/>
<path d="M88.2267 12.6226C88.135 12.1252 87.6575 11.7966 87.1603 11.8882C86.6629 11.9799 86.3341 12.4574 86.4259 12.9548C86.5175 13.4521 86.9951 13.7809 87.4924 13.6892C87.9897 13.5974 88.3185 13.1199 88.2267 12.6226Z" fill="white"/>
<path d="M87.6306 12.0866C87.5423 11.5947 87.0719 11.2678 86.5801 11.3562C86.0883 11.4446 85.7613 11.9149 85.8496 12.4067C85.9381 12.8985 86.4084 13.2255 86.9003 13.1372C87.3921 13.0487 87.719 12.5784 87.6306 12.0866Z" fill="white"/>
<path d="M87.0571 7.84801C86.9951 7.33702 86.5306 6.973 86.0196 7.03494C85.5087 7.09688 85.1446 7.56135 85.2066 8.07234C85.2685 8.58332 85.733 8.94735 86.244 8.88541C86.755 8.82346 87.119 8.359 87.0571 7.84801Z" fill="white"/>
<path d="M96.3987 104.894C96.4073 104.515 96.107 104.2 95.7278 104.192C95.3487 104.183 95.0342 104.483 95.0256 104.862C95.0168 105.242 95.3172 105.556 95.6964 105.565C96.0756 105.573 96.39 105.273 96.3987 104.894Z" fill="white"/>
<path d="M94.2435 105.193C94.2524 104.823 93.9594 104.515 93.5892 104.507C93.2191 104.498 92.912 104.791 92.9031 105.161C92.8944 105.531 93.1873 105.838 93.5575 105.847C93.9276 105.856 94.2348 105.563 94.2435 105.193Z" fill="white"/>
<path d="M97.3183 99.7812C97.3126 99.417 97.0128 99.1263 96.6487 99.132C96.2845 99.1375 95.9938 99.4373 95.9993 99.8015C96.005 100.166 96.3047 100.456 96.6689 100.451C97.0331 100.445 97.3238 100.145 97.3183 99.7812Z" fill="white"/>
<path d="M101.038 96.1715C101.025 95.7834 100.7 95.4791 100.312 95.4917C99.9239 95.5045 99.6196 95.8293 99.6323 96.2175C99.645 96.6055 99.9699 96.9099 100.358 96.8971C100.746 96.8845 101.05 96.5596 101.038 96.1715Z" fill="white"/>
<path d="M106.482 85.0424C106.431 84.6393 106.062 84.3541 105.659 84.4055C105.256 84.4569 104.971 84.8253 105.022 85.2284C105.074 85.6316 105.442 85.9167 105.845 85.8654C106.248 85.814 106.533 85.4456 106.482 85.0424Z" fill="white"/>
<path d="M106.769 83.1192C106.704 82.7088 106.319 82.4283 105.909 82.4927C105.499 82.557 105.218 82.9418 105.283 83.3522C105.347 83.7626 105.732 84.0431 106.142 83.9787C106.552 83.9144 106.833 83.5296 106.769 83.1192Z" fill="white"/>
<path d="M109.9 67.677C109.79 67.3109 109.404 67.1033 109.038 67.2132C108.672 67.3232 108.464 67.709 108.574 68.0753C108.684 68.4414 109.07 68.649 109.437 68.539C109.802 68.429 110.01 68.0432 109.9 67.677Z" fill="white"/>
<path d="M111.725 63.7405C111.645 63.367 111.276 63.13 110.902 63.2113C110.529 63.2926 110.292 63.6613 110.373 64.0348C110.455 64.4083 110.823 64.6453 111.196 64.564C111.571 64.4827 111.807 64.114 111.725 63.7405Z" fill="white"/>
<path d="M111.78 59.0791C111.692 58.6824 111.299 58.4321 110.902 58.52C110.506 58.608 110.255 59.0009 110.343 59.3977C110.431 59.7943 110.824 60.0447 111.22 59.9568C111.617 59.8687 111.867 59.4759 111.78 59.0791Z" fill="white"/>
<path d="M110.663 50.0268C110.566 49.5888 110.133 49.3121 109.694 49.4087C109.257 49.5053 108.98 49.9386 109.076 50.3766C109.173 50.8146 109.606 51.0914 110.044 50.9948C110.482 50.8982 110.759 50.4648 110.663 50.0268Z" fill="white"/>
<path d="M109.077 42.9231C108.976 42.4617 108.519 42.1702 108.057 42.2721C107.596 42.374 107.304 42.8306 107.406 43.2921C107.508 43.7535 107.965 44.0451 108.426 43.9432C108.888 43.8413 109.179 43.3847 109.077 42.9231Z" fill="white"/>
<path d="M96.819 26.6832C96.6307 26.1497 96.0454 25.8696 95.5117 26.0579C94.9781 26.2463 94.6981 26.8316 94.8864 27.3652C95.0747 27.8988 95.66 28.1788 96.1937 27.9905C96.7273 27.8022 97.0073 27.2169 96.819 26.6832Z" fill="white"/>
<path d="M97.2632 24.7852C97.1093 24.2282 96.5328 23.9015 95.9758 24.0554C95.4187 24.2094 95.092 24.7858 95.246 25.3429C95.3999 25.8999 95.9764 26.2266 96.5334 26.0727C97.0904 25.9187 97.4172 25.3422 97.2632 24.7852Z" fill="white"/>
<path d="M100.045 25.5146C99.9214 24.9347 99.3511 24.5645 98.7711 24.6879C98.1911 24.8114 97.8209 25.3816 97.9444 25.9617C98.0678 26.5417 98.6381 26.9117 99.218 26.7883C99.7981 26.665 100.168 26.0946 100.045 25.5146Z" fill="white"/>
<path d="M95.7149 19.9464C95.5873 19.3519 95.0019 18.9734 94.4073 19.1011C93.8128 19.2287 93.4344 19.8141 93.562 20.4086C93.6896 21.0031 94.275 21.3816 94.8696 21.254C95.4641 21.1263 95.8425 20.5408 95.7149 19.9464Z" fill="white"/>
<path d="M94.6077 17.57C94.4928 16.9822 93.9231 16.5987 93.3352 16.7136C92.7474 16.8284 92.3639 17.3981 92.4787 17.986C92.5935 18.574 93.1633 18.9575 93.7512 18.8426C94.3391 18.7277 94.7226 18.1579 94.6077 17.57Z" fill="white"/>
<path d="M92.5986 15.7067C92.4891 15.1393 91.9403 14.7681 91.3729 14.8776C90.8054 14.9871 90.4342 15.536 90.5437 16.1035C90.6532 16.671 91.2021 17.0421 91.7696 16.9326C92.337 16.823 92.7083 16.2742 92.5986 15.7067Z" fill="white"/>
<path d="M94.0604 12.2798C93.9786 11.7076 93.4485 11.3102 92.8764 11.392C92.3043 11.4738 91.9068 12.004 91.9886 12.5761C92.0704 13.1483 92.6006 13.5457 93.1727 13.4639C93.7448 13.3821 94.1423 12.8519 94.0604 12.2798Z" fill="white"/>
<path d="M90.4187 9.67454C90.352 9.17022 89.8893 8.81539 89.3849 8.882C88.8806 8.94862 88.5257 9.41146 88.5924 9.9158C88.6589 10.4201 89.1218 10.775 89.6261 10.7083C90.1305 10.6417 90.4853 10.1789 90.4187 9.67454Z" fill="white"/>
<path d="M99.475 103.597C99.4817 103.209 99.1723 102.889 98.7841 102.882C98.3959 102.876 98.0757 103.185 98.0691 103.573C98.0624 103.961 98.3718 104.281 98.7601 104.288C99.1483 104.295 99.4684 103.985 99.475 103.597Z" fill="white"/>
<path d="M102.484 99.7733C102.483 99.361 102.148 99.0273 101.736 99.028C101.323 99.0287 100.989 99.3636 100.99 99.7761C100.991 100.188 101.326 100.522 101.738 100.521C102.151 100.521 102.484 100.186 102.484 99.7733Z" fill="white"/>
<path d="M101.37 99.4314C101.369 99.0251 101.038 98.6968 100.632 98.6981C100.226 98.6995 99.8973 99.0301 99.8987 99.4365C99.9001 99.8428 100.231 100.171 100.637 100.17C101.043 100.168 101.372 99.8378 101.37 99.4314Z" fill="white"/>
<path d="M106.169 90.9435C106.15 90.5708 105.833 90.2837 105.46 90.3025C105.087 90.3212 104.8 90.6386 104.819 91.0114C104.838 91.3841 105.155 91.6712 105.528 91.6524C105.901 91.6337 106.188 91.3163 106.169 90.9435Z" fill="white"/>
<path d="M106.706 90.208C106.686 89.8383 106.371 89.5546 106.001 89.5742C105.631 89.5938 105.347 89.9094 105.367 90.2791C105.387 90.6489 105.702 90.9327 106.072 90.9131C106.442 90.8934 106.726 90.5777 106.706 90.208Z" fill="white"/>
<path d="M110.268 79.4036C110.222 79.009 109.864 78.7269 109.47 78.7735C109.075 78.82 108.793 79.1778 108.84 79.5723C108.886 79.9669 109.244 80.249 109.639 80.2024C110.034 80.1559 110.315 79.7982 110.268 79.4036Z" fill="white"/>
<path d="M111.856 71.4962C111.794 71.0976 111.421 70.8245 111.023 70.8863C110.624 70.948 110.351 71.3211 110.413 71.7197C110.474 72.1183 110.847 72.3914 111.246 72.3297C111.645 72.268 111.917 71.8948 111.856 71.4962Z" fill="white"/>
<path d="M113.094 64.2397C113.04 63.8672 112.694 63.6086 112.322 63.6619C111.949 63.7154 111.691 64.0606 111.744 64.433C111.798 64.8054 112.143 65.0642 112.515 65.0107C112.887 64.9574 113.147 64.6121 113.094 64.2397Z" fill="white"/>
<path d="M113.511 58.2845C113.463 57.893 113.108 57.6144 112.716 57.662C112.324 57.7096 112.046 58.0656 112.093 58.457C112.141 58.8484 112.497 59.1272 112.888 59.0795C113.28 59.0319 113.558 58.676 113.511 58.2845Z" fill="white"/>
<path d="M113.793 55.2466C113.758 54.8719 113.425 54.5967 113.051 54.6317C112.677 54.6669 112.401 54.9989 112.436 55.3735C112.472 55.7482 112.803 56.0235 113.177 55.9884C113.553 55.9534 113.828 55.6213 113.793 55.2466Z" fill="white"/>
<path d="M111.381 44.7537C111.32 44.3002 110.903 43.9817 110.45 44.0424C109.996 44.103 109.678 44.5198 109.738 44.9733C109.799 45.4267 110.216 45.7453 110.669 45.6846C111.123 45.624 111.441 45.2073 111.381 44.7537Z" fill="white"/>
<path d="M107.59 37.1055C107.503 36.6073 107.029 36.274 106.53 36.361C106.032 36.4479 105.699 36.9222 105.786 37.4203C105.873 37.9186 106.347 38.2519 106.845 38.165C107.343 38.078 107.677 37.6036 107.59 37.1055Z" fill="white"/>
<path d="M105.517 30.2018C105.437 29.6294 104.909 29.23 104.336 29.3098C103.764 29.3895 103.364 29.9182 103.444 30.4906C103.524 31.063 104.053 31.4623 104.625 31.3826C105.198 31.3029 105.597 30.7742 105.517 30.2018Z" fill="white"/>
<path d="M101.736 25.2484C101.636 24.6609 101.08 24.265 100.492 24.3642C99.9042 24.4636 99.5083 25.0205 99.6077 25.6082C99.7071 26.1959 100.264 26.5918 100.852 26.4924C101.439 26.3931 101.835 25.8361 101.736 25.2484Z" fill="white"/>
<path d="M98.7761 22.0835C98.6632 21.4861 98.0872 21.0934 97.4898 21.2064C96.8924 21.3193 96.4996 21.8953 96.6126 22.4927C96.7257 23.0902 97.3016 23.4829 97.899 23.3699C98.4964 23.2569 98.8892 22.681 98.7761 22.0835Z" fill="white"/>
<path d="M100.419 20.5422C100.331 19.9559 99.7842 19.5519 99.1977 19.6401C98.6114 19.7283 98.2075 20.2751 98.2956 20.8616C98.3838 21.4479 98.9306 21.8519 99.517 21.7636C100.103 21.6755 100.507 21.1287 100.419 20.5422Z" fill="white"/>
<path d="M99.9728 17.0624C99.8931 16.4808 99.357 16.0741 98.7755 16.1538C98.194 16.2336 97.7872 16.7697 97.8669 17.3511C97.9467 17.9327 98.4827 18.3395 99.0643 18.2597C99.6457 18.18 100.053 17.6439 99.9728 17.0624Z" fill="white"/>
<path d="M95.5293 13.1268C95.4464 12.5426 94.9056 12.1363 94.3216 12.2192C93.7374 12.3021 93.331 12.8428 93.4139 13.427C93.4968 14.0111 94.0376 14.4175 94.6218 14.3346C95.2059 14.2516 95.6122 13.7109 95.5293 13.1268Z" fill="white"/>
<path d="M103.123 99.4297C103.121 99.0173 102.786 98.6841 102.374 98.6857C101.961 98.6871 101.628 99.0227 101.63 99.435C101.631 99.8474 101.967 100.181 102.379 100.179C102.791 100.178 103.124 99.8421 103.123 99.4297Z" fill="white"/>
<path d="M104.66 98.0645C104.656 97.6641 104.328 97.3429 103.928 97.3471C103.527 97.3513 103.206 97.6792 103.21 98.0795C103.214 98.4799 103.542 98.801 103.943 98.7968C104.343 98.7926 104.664 98.4647 104.66 98.0645Z" fill="white"/>
<path d="M106.556 91.1892C106.539 90.8225 106.228 90.5387 105.862 90.5555C105.495 90.5723 105.211 90.8833 105.228 91.2502C105.245 91.617 105.556 91.9007 105.922 91.8839C106.289 91.8671 106.573 91.5561 106.556 91.1892Z" fill="white"/>
<path d="M110.329 87.459C110.307 87.0713 109.976 86.7746 109.588 86.7962C109.2 86.8178 108.903 87.1496 108.925 87.5373C108.947 87.925 109.279 88.2217 109.666 88.2001C110.054 88.1785 110.351 87.8467 110.329 87.459Z" fill="white"/>
<path d="M111.117 81.5421C111.084 81.1491 110.739 80.8567 110.347 80.8888C109.953 80.9211 109.66 81.2658 109.693 81.6589C109.725 82.0518 110.07 82.3443 110.463 82.312C110.856 82.2798 111.148 81.9351 111.117 81.5421Z" fill="white"/>
<path d="M113.839 77.2679C113.811 76.8866 113.48 76.5997 113.098 76.627C112.717 76.6542 112.43 76.9856 112.457 77.3668C112.485 77.7482 112.816 78.0351 113.197 78.0079C113.579 77.9805 113.866 77.6493 113.839 77.2679Z" fill="white"/>
<path d="M115.155 70.0426C115.127 69.628 114.768 69.3149 114.355 69.3431C113.94 69.3711 113.627 69.7299 113.654 70.1443C113.683 70.5588 114.042 70.872 114.456 70.8438C114.871 70.8157 115.184 70.457 115.155 70.0426Z" fill="white"/>
<path d="M114.916 61.136C114.889 60.7578 114.561 60.4734 114.182 60.5009C113.804 60.5283 113.519 60.8573 113.547 61.2355C113.575 61.6139 113.903 61.8983 114.282 61.8708C114.66 61.8433 114.945 61.5144 114.916 61.136Z" fill="white"/>
<path d="M114.334 53.4898C114.299 53.109 113.962 52.8287 113.581 52.8634C113.2 52.8982 112.92 53.2349 112.955 53.6157C112.99 53.9964 113.326 54.2769 113.707 54.2421C114.087 54.2073 114.369 53.8705 114.334 53.4898Z" fill="white"/>
<path d="M113.392 48.2145C113.353 47.7737 112.964 47.4485 112.523 47.4881C112.082 47.5277 111.757 47.9171 111.796 48.3578C111.836 48.7985 112.225 49.1237 112.666 49.0841C113.106 49.0445 113.432 48.6552 113.392 48.2145Z" fill="white"/>
<path d="M113.633 43.0256C113.613 42.5655 113.223 42.209 112.763 42.2294C112.302 42.2497 111.947 42.6392 111.966 43.0993C111.987 43.5594 112.377 43.9158 112.837 43.8956C113.296 43.8752 113.653 43.4857 113.633 43.0256Z" fill="white"/>
<path d="M111.108 36.3545C111.078 35.8528 110.646 35.4711 110.144 35.502C109.642 35.5329 109.26 35.9646 109.292 36.4665C109.322 36.9682 109.754 37.3499 110.256 37.3189C110.758 37.288 111.14 36.8562 111.108 36.3545Z" fill="white"/>
<path d="M105.677 27.4814C105.611 26.9012 105.087 26.4848 104.506 26.5513C103.926 26.6178 103.51 27.142 103.576 27.7221C103.643 28.3023 104.167 28.7188 104.747 28.6523C105.327 28.5858 105.744 28.0616 105.677 27.4814Z" fill="white"/>
<path d="M106.004 25.4214C105.94 24.8137 105.395 24.373 104.787 24.437C104.18 24.5011 103.739 25.0455 103.803 25.6533C103.867 26.2609 104.412 26.7016 105.019 26.6376C105.627 26.5736 106.068 26.0291 106.004 25.4214Z" fill="white"/>
<path d="M103.746 20.9325C103.674 20.3257 103.123 19.8925 102.517 19.9649C101.91 20.0374 101.477 20.588 101.549 21.1947C101.622 21.8015 102.172 22.2346 102.779 22.1621C103.386 22.0898 103.819 21.5392 103.746 20.9325Z" fill="white"/>
<path d="M100.928 18.0108C100.849 17.4261 100.312 17.0155 99.7271 17.0938C99.1424 17.172 98.7318 17.7096 98.8101 18.2944C98.8884 18.8791 99.4259 19.2897 100.011 19.2114C100.596 19.1332 101.006 18.5956 100.928 18.0108Z" fill="white"/>
<path d="M107.488 95.1144C107.479 94.7293 107.159 94.4248 106.774 94.4344C106.388 94.444 106.084 94.7641 106.094 95.1493C106.103 95.5344 106.423 95.8389 106.808 95.8293C107.194 95.8197 107.498 95.4996 107.488 95.1144Z" fill="white"/>
<path d="M112.352 88.0028C112.33 87.594 111.981 87.2803 111.572 87.302C111.162 87.3237 110.849 87.6727 110.871 88.0814C110.892 88.4903 111.241 88.804 111.65 88.7823C112.059 88.7606 112.372 88.4116 112.352 88.0028Z" fill="white"/>
<path d="M110.356 87.6293C110.335 87.2416 110.003 86.9447 109.616 86.9661C109.227 86.9874 108.931 87.3191 108.952 87.7068C108.974 88.0945 109.305 88.3914 109.693 88.37C110.08 88.3487 110.377 88.017 110.356 87.6293Z" fill="white"/>
<path d="M114.645 81.3235C114.619 80.927 114.277 80.6265 113.88 80.6522C113.484 80.678 113.183 81.0203 113.209 81.4169C113.234 81.8133 113.577 82.1138 113.974 82.0881C114.37 82.0623 114.671 81.72 114.645 81.3235Z" fill="white"/>
<path d="M115.992 76.9581C115.968 76.5855 115.647 76.3026 115.275 76.326C114.902 76.3495 114.62 76.6704 114.643 77.043C114.667 77.4155 114.987 77.6985 115.36 77.675C115.732 77.6516 116.015 77.3306 115.992 76.9581Z" fill="white"/>
<path d="M117.271 71.154C117.252 70.7571 116.914 70.4517 116.517 70.4718C116.119 70.4917 115.814 70.8297 115.835 71.2266C115.854 71.6233 116.193 71.9288 116.59 71.9088C116.986 71.8887 117.291 71.5508 117.271 71.154Z" fill="white"/>
<path d="M117.649 64.364C117.637 63.9759 117.313 63.6709 116.925 63.6829C116.536 63.6948 116.232 64.0191 116.244 64.4073C116.256 64.7954 116.58 65.1003 116.968 65.0884C117.356 65.0764 117.661 64.7521 117.649 64.364Z" fill="white"/>
<path d="M116.265 53.6528C116.251 53.2647 115.924 52.9618 115.536 52.9761C115.148 52.9904 114.846 53.3167 114.86 53.7047C114.874 54.0927 115.2 54.3957 115.588 54.3813C115.976 54.367 116.279 54.0408 116.265 53.6528Z" fill="white"/>
<path d="M115.708 47.7715C115.698 47.3352 115.335 46.9902 114.899 47.001C114.463 47.0117 114.117 47.3742 114.128 47.8104C114.139 48.2468 114.501 48.5919 114.937 48.5811C115.374 48.5703 115.719 48.2079 115.708 47.7715Z" fill="white"/>
<path d="M113.484 40.8209C113.466 40.3486 113.069 39.98 112.597 39.9976C112.125 40.0151 111.756 40.4121 111.774 40.8844C111.792 41.3566 112.189 41.7253 112.66 41.7078C113.133 41.6902 113.501 41.2932 113.484 40.8209Z" fill="white"/>
<path d="M115.008 41.3029C114.999 40.8394 114.617 40.47 114.154 40.4777C113.69 40.4855 113.321 40.8675 113.329 41.331C113.337 41.7944 113.718 42.1639 114.182 42.1562C114.646 42.1484 115.016 41.7664 115.008 41.3029Z" fill="white"/>
<path d="M112.322 33.9018C112.302 33.3756 111.858 32.9662 111.331 32.9876C110.805 33.009 110.396 33.453 110.417 33.9794C110.438 34.5057 110.882 34.9151 111.408 34.8936C111.935 34.8722 112.344 34.4282 112.322 33.9018Z" fill="white"/>
<path d="M109.547 29.0194C109.504 28.4188 108.984 27.9663 108.383 28.0085C107.783 28.0509 107.33 28.5719 107.372 29.1724C107.415 29.773 107.936 30.2256 108.536 30.1833C109.137 30.141 109.59 29.6199 109.547 29.0194Z" fill="white"/>
<path d="M108 24.8275C107.944 24.1797 107.374 23.6994 106.726 23.7548C106.079 23.8102 105.598 24.3803 105.654 25.0281C105.709 25.676 106.279 26.1562 106.927 26.1008C107.575 26.0454 108.055 25.4753 108 24.8275Z" fill="white"/>
<path d="M115.202 82.7935C115.177 82.385 114.825 82.0746 114.417 82.1004C114.008 82.1261 113.698 82.4782 113.723 82.8867C113.749 83.2954 114.101 83.6057 114.509 83.58C114.918 83.5542 115.228 83.2022 115.202 82.7935Z" fill="white"/>
<path d="M117.61 73.2476C117.589 72.8659 117.263 72.573 116.881 72.5934C116.5 72.6138 116.207 72.9397 116.228 73.3214C116.247 73.7032 116.573 73.9961 116.955 73.9757C117.337 73.9553 117.631 73.6293 117.61 73.2476Z" fill="white"/>
<path d="M118.131 72.303C118.112 71.915 117.782 71.6163 117.394 71.6357C117.007 71.655 116.708 71.985 116.727 72.3728C116.746 72.7606 117.076 73.0594 117.464 73.0401C117.852 73.0208 118.151 72.6908 118.131 72.303Z" fill="white"/>
<path d="M119.256 66.0444C119.246 65.6593 118.926 65.3554 118.54 65.3655C118.155 65.3758 117.851 65.6963 117.861 66.0815C117.872 66.4666 118.192 66.7706 118.578 66.7604C118.963 66.7501 119.266 66.4296 119.256 66.0444Z" fill="white"/>
<path d="M119.205 56.1762C119.203 55.7578 118.861 55.4209 118.442 55.4237C118.024 55.4266 117.687 55.768 117.689 56.1864C117.693 56.6049 118.034 56.9417 118.452 56.9389C118.871 56.9361 119.208 56.5946 119.205 56.1762Z" fill="white"/>
<path d="M117.956 51.4463C117.954 51.0461 117.627 50.723 117.227 50.7251C116.827 50.7271 116.504 51.0532 116.506 51.4536C116.508 51.854 116.834 52.1769 117.235 52.1748C117.635 52.1729 117.958 51.8467 117.956 51.4463Z" fill="white"/>
<path d="M117.295 46.4884C117.295 46.067 116.954 45.7251 116.533 45.7247C116.112 45.7243 115.769 46.0657 115.769 46.4871C115.769 46.9085 116.111 47.2505 116.532 47.2509C116.953 47.2512 117.295 46.9098 117.295 46.4884Z" fill="white"/>
<path d="M115.406 38.5499C115.402 38.0593 115 37.665 114.509 37.6694C114.02 37.6737 113.625 38.0749 113.629 38.5655C113.633 39.0562 114.035 39.4504 114.526 39.4461C115.016 39.4418 115.411 39.0406 115.406 38.5499Z" fill="white"/>
</g>
<defs>
<clipPath id="clip0_11559_12887">
<rect width="120" height="120" fill="white"/>
</clipPath>
</defs>
</svg>
